<svg width="132" height="133" viewBox="0 0 132 133" fill="none" xmlns="http://www.w3.org/2000/svg">
<g id="task">
<mask id="mask0_13543_6628" style="mask-type:alpha" maskUnits="userSpaceOnUse" x="0" y="0" width="132" height="133">
<rect id="Bounding box" x="0.716797" y="0.851074" width="131.214" height="131.214" fill="#D9D9D9"/>
</mask>
<g mask="url(#mask0_13543_6628)">
<path id="task_2" d="M60.5828 99.2611L91.4728 68.3712L83.5453 60.4437L60.4461 83.5428L48.9649 72.0616L41.1741 79.8524L60.5828 99.2611ZM33.5199 121.13C30.513 121.13 27.9388 120.059 25.7975 117.918C23.6561 115.777 22.5854 113.203 22.5854 110.196V22.7197C22.5854 19.7127 23.6561 17.1385 25.7975 14.9972C27.9388 12.8558 30.513 11.7852 33.5199 11.7852H77.2579L110.061 44.5886V110.196C110.061 113.203 108.991 115.777 106.849 117.918C104.708 120.059 102.134 121.13 99.1269 121.13H33.5199ZM71.7907 50.0559V22.7197H33.5199V110.196H99.1269V50.0559H71.7907Z" fill="#613CB0"/>
</g>
</g>
</svg>
