<svg width="149" height="58" viewBox="0 0 149 58" fill="none" xmlns="http://www.w3.org/2000/svg">
<path d="M2 47.0411V8.22266L23.1218 21.1621V32.9599L13.0747 41.0372V27.9405" stroke="url(#paint0_linear_13609_3556)" stroke-width="3.05921" stroke-linejoin="round"/>
<g filter="url(#filter0_d_13609_3556)">
<path d="M13.0654 27.8936V48.9884" stroke="url(#paint1_linear_13609_3556)" stroke-width="3.04673" shape-rendering="crispEdges"/>
</g>
<path d="M12.4189 1.67871L34.2462 14.9496V39.2215L13.1174 52.3178V27.8714" stroke="url(#paint2_linear_13609_3556)" stroke-width="3.05921" stroke-linejoin="round"/>
<path d="M43.2097 14.7852H48.3676C51.3251 14.7852 53.3202 14.9143 54.353 15.1725C55.8317 15.5363 57.0405 16.2874 57.9794 17.4258C58.9183 18.5525 59.3877 19.9725 59.3877 21.686C59.3877 23.4112 58.93 24.8371 58.0146 25.9638C57.0992 27.0787 55.8376 27.8298 54.2298 28.2171C53.0562 28.4987 50.8615 28.6396 47.6459 28.6396H45.7975V40.6807H43.2097V14.7852ZM45.7975 17.3026V26.1046L50.1808 26.1574C51.953 26.1574 53.2498 25.999 54.0713 25.6821C54.8928 25.3535 55.5383 24.8312 56.0078 24.1153C56.4772 23.3877 56.7119 22.5779 56.7119 21.686C56.7119 20.8175 56.4772 20.0253 56.0078 19.3095C55.5383 18.5818 54.9163 18.0654 54.1417 17.7603C53.3789 17.4552 52.1231 17.3026 50.3745 17.3026H45.7975ZM65.021 13.641C65.5843 13.641 66.0655 13.8405 66.4645 14.2395C66.8635 14.6385 67.063 15.1197 67.063 15.683C67.063 16.2346 66.8635 16.7099 66.4645 17.109C66.0655 17.508 65.5843 17.7075 65.021 17.7075C64.4694 17.7075 63.9941 17.508 63.5951 17.109C63.196 16.7099 62.9965 16.2346 62.9965 15.683C62.9965 15.1197 63.196 14.6385 63.5951 14.2395C63.9941 13.8405 64.4694 13.641 65.021 13.641ZM63.7887 21.5276H66.2709V40.6807H63.7887V21.5276ZM73.5237 14.4156H76.0059V21.5276H79.9139V23.64H76.0059V40.6807H73.5237V23.64H70.1613V21.5276H73.5237V14.4156ZM102.676 21.5276V40.6807H100.247V37.3887C99.2137 38.6445 98.0519 39.5892 96.7609 40.223C95.4817 40.8567 94.0793 41.1736 92.5536 41.1736C89.8426 41.1736 87.5247 40.1936 85.6 38.2337C83.6871 36.2621 82.7306 33.8679 82.7306 31.0513C82.7306 28.2933 83.6988 25.9344 85.6352 23.9745C87.5717 22.0146 89.9013 21.0346 92.624 21.0346C94.1966 21.0346 95.6167 21.3691 96.8842 22.0381C98.1634 22.707 99.2842 23.7104 100.247 25.0483V21.5276H102.676ZM92.8176 23.4112C91.4445 23.4112 90.177 23.7515 89.0152 24.4322C87.8533 25.1012 86.9262 26.0459 86.2338 27.2664C85.5531 28.487 85.2127 29.7779 85.2127 31.1393C85.2127 32.489 85.5589 33.7799 86.2514 35.0122C86.9438 36.2445 87.8709 37.2068 89.0328 37.8992C90.2064 38.5799 91.4621 38.9203 92.8 38.9203C94.1497 38.9203 95.4289 38.5799 96.6377 37.8992C97.8465 37.2186 98.7736 36.2973 99.4191 35.1354C100.076 33.9736 100.405 32.665 100.405 31.2097C100.405 28.9916 99.6714 27.1373 98.2045 25.6469C96.7492 24.1564 94.9536 23.4112 92.8176 23.4112ZM108.221 14.1339H110.703V29.2381L119.558 21.5276H123.184L112.675 30.664L123.801 40.6807H120.315L110.703 32.0723V40.6807H108.221V14.1339ZM145.418 21.5276V40.6807H142.989V37.3887C141.956 38.6445 140.794 39.5892 139.503 40.223C138.224 40.8567 136.822 41.1736 135.296 41.1736C132.585 41.1736 130.267 40.1936 128.342 38.2337C126.429 36.2621 125.473 33.8679 125.473 31.0513C125.473 28.2933 126.441 25.9344 128.378 23.9745C130.314 22.0146 132.644 21.0346 135.366 21.0346C136.939 21.0346 138.359 21.3691 139.627 22.0381C140.906 22.707 142.027 23.7104 142.989 25.0483V21.5276H145.418ZM135.56 23.4112C134.187 23.4112 132.919 23.7515 131.758 24.4322C130.596 25.1012 129.669 26.0459 128.976 27.2664C128.295 28.487 127.955 29.7779 127.955 31.1393C127.955 32.489 128.301 33.7799 128.994 35.0122C129.686 36.2445 130.613 37.2068 131.775 37.8992C132.949 38.5799 134.205 38.9203 135.542 38.9203C136.892 38.9203 138.171 38.5799 139.38 37.8992C140.589 37.2186 141.516 36.2973 142.162 35.1354C142.819 33.9736 143.147 32.665 143.147 31.2097C143.147 28.9916 142.414 27.1373 140.947 25.6469C139.492 24.1564 137.696 23.4112 135.56 23.4112Z" fill="#F7F8F8"/>
<path d="M114.671 50.6826V45.1379H116.61C116.996 45.1379 117.315 45.2047 117.566 45.3383C117.816 45.47 118.003 45.6478 118.126 45.8716C118.249 46.0936 118.31 46.34 118.31 46.6107C118.31 46.849 118.268 47.0457 118.183 47.2009C118.1 47.3562 117.99 47.4789 117.853 47.5691C117.717 47.6594 117.57 47.7262 117.411 47.7695V47.8236C117.581 47.8345 117.752 47.894 117.923 48.0023C118.094 48.1106 118.238 48.2658 118.353 48.468C118.469 48.6701 118.527 48.9174 118.527 49.2098C118.527 49.4878 118.464 49.7377 118.337 49.9597C118.211 50.1818 118.011 50.3577 117.739 50.4877C117.466 50.6176 117.112 50.6826 116.675 50.6826H114.671ZM115.343 50.087H116.675C117.113 50.087 117.425 50.0022 117.609 49.8325C117.795 49.661 117.888 49.4535 117.888 49.2098C117.888 49.0221 117.84 48.8488 117.744 48.69C117.649 48.5294 117.512 48.4012 117.335 48.3055C117.159 48.2081 116.949 48.1593 116.707 48.1593H115.343V50.087ZM115.343 47.5746H116.588C116.79 47.5746 116.973 47.5348 117.135 47.4554C117.299 47.376 117.429 47.2641 117.525 47.1197C117.622 46.9753 117.671 46.8057 117.671 46.6107C117.671 46.3671 117.586 46.1604 117.417 45.9907C117.247 45.8193 116.978 45.7335 116.61 45.7335H115.343V47.5746ZM119.955 52.2421C119.847 52.2421 119.75 52.233 119.665 52.215C119.58 52.1987 119.522 52.1825 119.489 52.1663L119.652 51.6031C119.807 51.6428 119.944 51.6573 120.063 51.6464C120.182 51.6356 120.288 51.5824 120.38 51.4867C120.474 51.3929 120.56 51.2403 120.637 51.0292L120.756 50.7043L119.218 46.5241H119.912L121.059 49.8379H121.103L122.251 46.5241H122.944L121.179 51.2891C121.099 51.5039 121.001 51.6816 120.883 51.8224C120.766 51.965 120.63 52.0706 120.475 52.1392C120.321 52.2078 120.148 52.2421 119.955 52.2421Z" fill="#F7F8F8"/>
<path d="M129.706 44.2998C128.377 44.2601 127.046 44.276 125.716 44.2686C125.702 44.2686 125.688 44.2866 125.666 44.3019V53.1514C127.062 53.1514 128.428 53.2028 129.789 53.1371C131.191 53.0693 132.166 52.3017 132.66 50.9645C133.186 49.5399 133.176 48.0798 132.712 46.6536C132.244 45.2137 131.252 44.3454 129.706 44.2993V44.2998ZM131.103 50.0496C130.885 51.2024 130.454 51.5955 129.299 51.6903C128.711 51.7385 128.118 51.7099 127.527 51.7136C127.495 51.7136 127.463 51.6935 127.421 51.6797V45.7424C127.624 45.7424 127.812 45.7392 128.001 45.7429C128.409 45.7514 128.818 45.753 129.226 45.7753C130.279 45.833 130.878 46.3379 131.093 47.3922C131.273 48.2732 131.27 49.1675 131.103 50.049V50.0496Z" fill="#F7F8F8"/>
<path d="M139.078 49.6104C137.901 47.8939 136.725 46.1758 135.545 44.4609C135.49 44.3809 135.399 44.2729 135.323 44.2707C134.752 44.2549 134.181 44.2617 133.605 44.2617V53.1754H135.25L135.258 50.8692C135.262 50.8533 135.267 50.8395 135.274 50.8274L137.153 50.785L136.875 50.3707C136.821 50.2907 136.767 50.2107 136.714 50.1323L136.21 49.3821H135.27V47.2693C135.363 47.4007 135.419 47.4786 135.474 47.557C136.746 49.3789 138.017 51.2019 139.292 53.0212C139.345 53.0964 139.444 53.1849 139.523 53.1865C140.174 53.1997 140.826 53.1939 141.529 53.1939C141.459 53.0842 141.419 53.018 141.375 52.9544C140.61 51.8392 139.843 50.7246 139.079 49.6088L139.078 49.6104Z" fill="#F7F8F8"/>
<path d="M139.876 49.8603L140.011 49.5398L136.345 44.1577L135.704 44.2038L139.773 50.1082C139.819 50.0208 139.854 49.9387 139.876 49.8603Z" fill="#F7F8F8"/>
<path d="M140.527 46.89L140.877 45.6996C140.933 45.5073 140.989 45.315 141.046 45.1227L141.211 44.5622L141.332 44.2051H140.815L140.761 44.3905C140.736 44.4504 140.713 44.532 140.682 44.6411C140.629 44.8281 140.577 45.0151 140.524 45.2021L139.612 48.3257L139.969 48.7888C140.157 48.1493 140.343 47.5178 140.527 46.89Z" fill="#F7F8F8"/>
<path d="M145.83 45.8489C145.944 45.3048 146.051 44.7972 146.161 44.2738C146.096 44.2637 146.07 44.2558 146.045 44.2558C144.618 44.2547 143.192 44.2579 141.766 44.2505C141.597 44.2494 141.546 44.3226 141.502 44.4672C141.128 45.7069 140.748 46.9445 140.37 48.1826C140.309 48.3823 140.251 48.5836 140.185 48.8093C140.599 48.8432 140.988 48.8686 141.376 48.9099C141.562 48.9296 141.702 48.8866 141.842 48.7505C142.133 48.4681 142.489 48.3071 142.896 48.2864C143.467 48.2578 143.899 48.5608 143.978 49.1319C144.031 49.5075 144.018 49.9118 143.939 50.2826C143.78 51.0344 143.343 51.579 142.568 51.7454C141.94 51.8804 141.446 51.5017 141.361 50.8564C141.339 50.6932 141.334 50.5279 141.319 50.3462C140.886 50.3865 140.47 50.4246 140.01 50.4675C140.643 51.3825 141.245 52.2561 141.855 53.1239C141.891 53.1747 141.987 53.2023 142.055 53.2049C144.663 53.3008 146.001 51.0286 145.787 49.1107C145.665 48.0189 144.967 47.248 143.949 47.0456C143.484 46.9529 143.03 46.9921 142.557 47.1474L142.888 45.878L145.831 45.8489H145.83Z" fill="#F7F8F8"/>
<defs>
<filter id="filter0_d_13609_3556" x="11.542" y="27.1319" width="3.91737" height="21.9652" filterUnits="userSpaceOnUse" color-interpolation-filters="sRGB">
<feFlood flood-opacity="0" result="BackgroundImageFix"/>
<feColorMatrix in="SourceAlpha" type="matrix" values="0 0 0 0 0 0 0 0 0 0 0 0 0 0 0 0 0 0 127 0" result="hardAlpha"/>
<feOffset dx="0.435247" dy="-0.326435"/>
<feGaussianBlur stdDeviation="0.217624"/>
<feComposite in2="hardAlpha" operator="out"/>
<feColorMatrix type="matrix" values="0 0 0 0 0 0 0 0 0 0 0 0 0 0 0 0 0 0 0.25 0"/>
<feBlend mode="normal" in2="BackgroundImageFix" result="effect1_dropShadow_13609_3556"/>
<feBlend mode="normal" in="SourceGraphic" in2="effect1_dropShadow_13609_3556" result="shape"/>
</filter>
<linearGradient id="paint0_linear_13609_3556" x1="-8.61048" y1="47.0411" x2="23.1218" y2="47.0411" gradientUnits="userSpaceOnUse">
<stop stop-color="#613CB0"/>
<stop offset="1" stop-color="#A08ACF"/>
</linearGradient>
<linearGradient id="paint1_linear_13609_3556" x1="13.5654" y1="27.8936" x2="13.5654" y2="48.9884" gradientUnits="userSpaceOnUse">
<stop stop-color="#0050FF"/>
<stop offset="1" stop-color="white" stop-opacity="0.28"/>
</linearGradient>
<linearGradient id="paint2_linear_13609_3556" x1="23.3326" y1="1.67871" x2="16.3418" y2="96.7358" gradientUnits="userSpaceOnUse">
<stop stop-color="#1F51BC"/>
<stop offset="1" stop-color="white"/>
<stop offset="1" stop-color="white" stop-opacity="0.28"/>
<stop offset="1" stop-color="white" stop-opacity="0.28"/>
</linearGradient>
</defs>
</svg>
