<svg width="24" height="24" viewBox="0 0 24 24" fill="none" xmlns="http://www.w3.org/2000/svg">
<g clip-path="url(#clip0_13490_32872)">
<path d="M18.5494 12.7504C18.5831 16.3824 21.7356 17.5911 21.7705 17.6065C21.7438 17.6917 21.2668 19.3288 20.1096 21.0199C19.1093 22.482 18.0711 23.9386 16.4357 23.9688C14.8287 23.9984 14.3119 23.0159 12.4747 23.0159C10.638 23.0159 10.0638 23.9386 8.54264 23.9984C6.96401 24.0582 5.76186 22.4175 4.75328 20.9608C2.69228 17.9811 1.11725 12.5409 3.23212 8.86873C4.28274 7.0451 6.16028 5.8903 8.19818 5.86069C9.74835 5.83112 11.2115 6.9036 12.1592 6.9036C13.1063 6.9036 14.8843 5.61385 16.7535 5.80327C17.536 5.83584 19.7326 6.11936 21.1431 8.18392C21.0294 8.25437 18.5221 9.71399 18.5494 12.7504ZM15.5292 3.83196C16.3673 2.81747 16.9314 1.4052 16.7775 0C15.5694 0.0485541 14.1086 0.805021 13.2421 1.81896C12.4655 2.71684 11.7854 4.15397 11.9689 5.53135C13.3155 5.63553 14.6911 4.8471 15.5292 3.83196Z" fill="#25272C"/>
</g>
<defs>
<clipPath id="clip0_13490_32872">
<rect width="24" height="24" fill="white"/>
</clipPath>
</defs>
</svg>
