<svg width="132" height="133" viewBox="0 0 132 133" fill="none" xmlns="http://www.w3.org/2000/svg">
<path id="Vector" d="M64.9746 0.848633C65.5719 0.848633 66.1693 0.848633 66.7692 0.848633C67.2563 1.0768 67.7587 1.2742 68.2253 1.54082C74.0013 4.82489 79.7721 8.12178 85.543 11.411C87.0427 12.2672 87.7964 13.5209 87.7913 15.2796C87.7682 21.899 87.7733 28.5184 87.7913 35.1378C87.7964 36.8375 87.0786 38.0706 85.6275 38.9269C84.961 39.3191 84.1945 39.5806 83.6099 40.2164C87.8323 43.0262 91.9957 45.7719 96.1232 48.5714C96.718 48.9739 97.0974 48.8098 97.6025 48.5202C100.812 46.6692 104.06 44.8823 107.239 42.9775C109.006 41.9161 110.611 41.9187 112.39 42.957C117.835 46.1334 123.311 49.2559 128.808 52.3426C130.123 53.0809 131.123 53.9987 131.607 55.4369V77.7332C131.012 78.7612 130.361 79.6867 129.261 80.3071C123.626 83.481 118.004 86.683 112.415 89.9389C110.646 90.9695 109.042 91.0156 107.268 89.9517C104.094 88.0469 100.851 86.2549 97.6384 84.4167C97.1615 84.1424 96.777 83.8988 96.1591 84.3167C92.0008 87.1368 87.8067 89.903 83.533 92.7486C84.0099 93.0435 84.3816 93.3357 84.802 93.5203C87.0914 94.5278 87.8682 96.2737 87.8221 98.7425C87.7093 104.926 87.7528 111.115 87.8041 117.304C87.8195 119.313 87.0324 120.667 85.2789 121.654C79.1748 125.089 73.1066 128.591 67.0255 132.068H64.9746C58.8525 128.566 52.7382 125.048 46.6007 121.575C44.942 120.636 44.1883 119.321 44.2011 117.411C44.2422 110.923 44.237 104.431 44.2037 97.9426C44.1934 96.084 44.9292 94.7534 46.57 93.8946C47.1955 93.5665 47.7954 93.1922 48.5158 92.7743C44.1781 89.885 39.9839 87.1111 35.8179 84.2962C35.2616 83.9219 34.9078 84.1168 34.4515 84.3808C31.2033 86.2497 27.9269 88.0674 24.7018 89.9773C22.979 90.9977 21.4024 90.9951 19.6642 89.9773C14.5907 87.0111 9.4736 84.1168 4.3642 81.2147C2.85676 80.3584 1.29804 79.5816 0.393066 77.9921V55.1831C1.02629 53.8193 2.11073 52.963 3.41051 52.2349C8.86601 49.1713 14.301 46.0667 19.7078 42.9185C21.3973 41.9366 22.9457 41.911 24.6275 42.9031C27.891 44.8259 31.2007 46.6666 34.4822 48.5586C34.954 48.8304 35.3077 48.9637 35.8436 48.6022C40.007 45.7924 44.1986 43.0211 48.3851 40.2369C48.0825 39.7575 47.6211 39.5857 47.2083 39.4037C44.9882 38.4167 44.1345 36.7631 44.1781 34.3174C44.2883 28.0902 44.2473 21.8579 44.196 15.6282C44.1781 13.6157 44.96 12.2672 46.7161 11.2802C52.8253 7.8449 58.891 4.33523 64.9746 0.856324V0.848633ZM89.3372 53.2732C85.0405 50.4044 80.813 47.5998 76.6162 44.7567C76.0599 44.3798 75.7164 44.5747 75.2549 44.8413C72.9322 46.1821 70.5788 47.4716 68.2689 48.8355C66.7128 49.7533 65.2412 49.7328 63.6928 48.815C61.3854 47.446 59.0371 46.1462 56.7119 44.8079C56.2966 44.5695 55.9684 44.3773 55.4582 44.7234C51.2256 47.5818 46.9725 50.407 42.6681 53.2809C43.7833 54.3935 43.9858 55.7292 43.9781 57.1956C43.9396 63.3433 43.9396 69.491 43.9781 75.6387C43.9884 77.1384 43.8089 78.5177 42.6604 79.6355C46.9314 82.4786 51.1282 85.2525 55.2942 88.0699C55.8505 88.4468 56.2171 88.4058 56.758 88.0828C59.032 86.7394 61.3573 85.4832 63.6235 84.1296C65.2104 83.1836 66.7128 83.1451 68.3151 84.0963C70.6224 85.4653 72.9758 86.7548 75.3011 88.093C75.7164 88.3314 76.042 88.5417 76.5521 88.1981C80.7822 85.3396 85.0353 82.5119 89.3346 79.638C88.2194 78.5177 88.0143 77.1846 88.0246 75.7156C88.0656 69.6115 88.063 63.5048 88.0246 57.4007C88.0143 55.8651 88.1348 54.4243 89.3398 53.2732H89.3372ZM62.1545 39.0653C62.1545 35.2249 62.1545 31.5717 62.1545 27.9185C62.1545 27.598 62.0776 27.375 61.7623 27.1955C58.5193 25.3548 55.2865 23.4987 51.8998 21.5606C51.8998 25.4009 51.8998 29.0567 51.8998 32.71C51.8998 33.0253 51.9639 33.2535 52.2818 33.4355C55.5275 35.2711 58.7628 37.1272 62.152 39.0653H62.1545ZM80.0926 21.5759C76.8572 23.4243 73.7834 25.2189 70.666 26.9366C69.9943 27.3057 69.8199 27.7211 69.8276 28.4312C69.861 31.6307 69.8353 34.8327 69.8533 38.0322C69.8533 38.3295 69.6636 38.7064 70.0481 38.9525C73.1604 37.1785 76.265 35.4095 79.3671 33.6355C79.7234 33.4329 80.108 33.2945 80.1028 32.7279C80.0798 29.0721 80.09 25.4163 80.09 21.5759H80.0926ZM18.3337 80.3225C18.3337 76.5206 18.3337 72.9033 18.3337 69.2885C18.3337 68.9398 18.308 68.6604 17.9286 68.445C14.683 66.612 11.4528 64.7508 8.08153 62.8203C8.08153 66.6274 8.09434 70.2447 8.06871 73.8595C8.06614 74.3774 8.29688 74.6132 8.69424 74.8363C11.8399 76.6154 14.9778 78.41 18.3311 80.32L18.3337 80.3225ZM36.2717 62.8357C32.8953 64.7662 29.7318 66.594 26.54 68.3732C26.0016 68.6732 26.017 69.0654 26.017 69.5346C26.0221 72.2239 26.017 74.9106 26.017 77.5999V80.3225C29.3523 78.428 32.4928 76.6411 35.6333 74.8593C36.0153 74.6414 36.2871 74.4235 36.2819 73.8903C36.2537 70.2704 36.2666 66.6505 36.2666 62.8357H36.2717ZM105.975 80.3225C105.975 76.5155 105.975 72.8981 105.975 69.2808C105.975 68.9296 105.942 68.6552 105.565 68.4425C102.322 66.6094 99.092 64.7508 95.7233 62.8229C95.7233 66.6351 95.7361 70.2524 95.7105 73.8698C95.7079 74.3927 95.9489 74.6209 96.3437 74.844C99.4868 76.6257 102.625 78.4151 105.975 80.3225ZM113.664 80.3251C117.007 78.4228 120.14 76.6231 123.298 74.867C123.849 74.5594 123.926 74.1697 123.924 73.6236C123.908 70.3806 123.924 67.1375 123.906 63.8945C123.906 63.5945 124.083 63.2254 123.716 62.9562C120.568 64.7482 117.427 66.5376 114.284 68.3168C113.892 68.5399 113.646 68.768 113.651 69.291C113.677 72.9084 113.664 76.5257 113.664 80.3251ZM51.905 104.08C51.905 107.913 51.9101 111.566 51.8998 115.217C51.8998 115.606 52.0434 115.814 52.3869 116.009C55.5967 117.826 58.7936 119.665 62.1545 121.59C62.1545 117.755 62.1494 114.104 62.1622 110.453C62.1622 110.059 62.0033 109.853 61.6675 109.661C58.4603 107.841 55.2608 106.003 51.905 104.08ZM69.843 121.59C72.1657 120.262 74.3038 119.044 76.4393 117.821C77.6212 117.145 79.1902 116.727 79.8747 115.714C80.6002 114.64 80.0669 112.984 80.0849 111.584C80.1182 109.141 80.0951 106.695 80.0951 104.095C76.7316 106.016 73.568 107.836 70.3814 109.625C69.9302 109.879 69.8327 110.182 69.8353 110.646C69.8481 114.227 69.843 117.811 69.843 121.59ZM76.1855 14.9437C72.8143 13.0107 69.62 11.1802 66.4256 9.34978C66.1411 9.18826 65.8719 9.1857 65.5847 9.34978C62.393 11.1828 59.1986 13.0107 55.8325 14.9386C59.1986 16.869 62.3955 18.6995 65.5873 20.5325C65.877 20.6992 66.1462 20.694 66.4282 20.5325C69.6225 18.7021 72.8169 16.8716 76.1855 14.9411V14.9437ZM11.9886 56.1932C14.9829 57.9032 17.8261 59.4209 20.5461 61.1334C21.7741 61.9051 22.6586 61.8487 23.8533 61.1104C26.5836 59.4235 29.4113 57.8929 32.3621 56.206C29.0139 54.2859 25.8529 52.481 22.697 50.6583C22.2586 50.4044 21.9305 50.5249 21.528 50.7582C18.4336 52.54 15.3265 54.2961 11.9886 56.1958V56.1932ZM99.6509 56.1983C103.017 58.1288 106.211 59.9567 109.403 61.7923C109.69 61.9589 109.959 61.9589 110.244 61.7974C113.438 59.9669 116.635 58.1365 120.004 56.206C116.635 54.2756 113.443 52.4426 110.249 50.6121C109.967 50.4506 109.698 50.4455 109.408 50.6121C106.214 52.4451 103.02 54.273 99.6509 56.2009V56.1983ZM55.8274 97.4632C58.7961 99.1604 61.6341 100.683 64.3593 102.388C65.5745 103.149 66.4615 103.129 67.6665 102.378C70.3942 100.683 73.2245 99.1578 76.1881 97.4658C72.8066 95.5302 69.6123 93.6998 66.4154 91.8667C66.1308 91.7027 65.8616 91.7129 65.5745 91.877C62.3827 93.71 59.1909 95.5379 55.8274 97.4632Z" fill="#613CB0"/>
</svg>
