<svg width="136" height="137" viewBox="0 0 136 137" fill="none" xmlns="http://www.w3.org/2000/svg">
<g id="touch_app">
<mask id="mask0_13543_6610" style="mask-type:alpha" maskUnits="userSpaceOnUse" x="0" y="0" width="136" height="137">
<rect id="Bounding box" x="0.10498" y="0.620117" width="135.466" height="135.466" fill="#D9D9D9"/>
</mask>
<g mask="url(#mask0_13543_6610)">
<path id="touch_app_2" d="M59.235 124.797C56.601 124.797 54.1315 124.233 51.8267 123.104C49.5219 121.975 47.5699 120.376 45.9706 118.306L15.2085 79.2184L17.8896 76.3962C19.7711 74.4206 22.0288 73.2447 24.6629 72.8684C27.297 72.4921 29.7429 73.0095 32.0007 74.4206L42.4429 80.7706V34.4863C42.4429 32.887 42.9838 31.5465 44.0656 30.4646C45.1475 29.3828 46.488 28.8419 48.0873 28.8419C49.6865 28.8419 51.0506 29.3828 52.1795 30.4646C53.3084 31.5465 53.8728 32.887 53.8728 34.4863V101.091L40.1851 92.6239L54.8606 111.392C55.425 112.05 56.0836 112.568 56.8362 112.944C57.5887 113.32 58.3884 113.508 59.235 113.508H90.4205C93.5249 113.508 96.1825 112.403 98.3932 110.192C100.604 107.981 101.709 105.324 101.709 102.219V79.6417C101.709 78.0425 101.168 76.7019 100.087 75.6201C99.0047 74.5382 97.6642 73.9973 96.0649 73.9973H65.1617V62.7084H96.0649C100.769 62.7084 104.767 64.3547 108.059 67.6473C111.352 70.9399 112.998 74.938 112.998 79.6417V102.219C112.998 108.428 110.787 113.743 106.366 118.165C101.945 122.586 96.6294 124.797 90.4205 124.797H59.235ZM23.6751 48.5974C22.4522 46.5277 21.5114 44.2935 20.8529 41.8946C20.1944 39.4957 19.8651 37.0263 19.8651 34.4863C19.8651 26.6782 22.6168 20.0225 28.1201 14.5191C33.6234 9.01582 40.2792 6.26416 48.0873 6.26416C55.8954 6.26416 62.5511 9.01582 68.0545 14.5191C73.5578 20.0225 76.3094 26.6782 76.3094 34.4863C76.3094 37.0263 75.9802 39.4957 75.3217 41.8946C74.6631 44.2935 73.7224 46.5277 72.4994 48.5974L62.7628 42.9529C63.5154 41.6359 64.0798 40.2954 64.4561 38.9313C64.8324 37.5672 65.0206 36.0856 65.0206 34.4863C65.0206 29.7826 63.3743 25.7845 60.0817 22.4919C56.7891 19.1993 52.791 17.553 48.0873 17.553C43.3836 17.553 39.3855 19.1993 36.0929 22.4919C32.8003 25.7845 31.154 29.7826 31.154 34.4863C31.154 36.0856 31.3422 37.5672 31.7184 38.9313C32.0947 40.2954 32.6592 41.6359 33.4118 42.9529L23.6751 48.5974Z" fill="#613CB0"/>
</g>
</g>
</svg>
