<svg width="609" height="374" viewBox="0 0 609 374" fill="none" xmlns="http://www.w3.org/2000/svg">
<g clip-path="url(#clip0_13609_656)">
<path d="M352.924 76.4362C352.924 76.9254 352.529 77.33 352.03 77.33C351.532 77.33 351.137 76.9348 351.137 76.4362C351.137 75.9376 351.532 75.5425 352.03 75.5425C352.529 75.5425 352.924 75.9376 352.924 76.4362Z" fill="#613CB0"/>
<path d="M465.884 131.489C465.884 131.979 465.489 132.383 464.99 132.383C464.491 132.383 464.096 131.988 464.096 131.489C464.096 130.991 464.491 130.596 464.99 130.596C465.489 130.596 465.884 130.991 465.884 131.489Z" fill="#613CB0"/>
<path d="M301.661 121.997C301.661 122.486 301.266 122.891 300.767 122.891C300.269 122.891 299.874 122.496 299.874 121.997C299.874 121.499 300.269 121.104 300.767 121.104C301.266 121.104 301.661 121.499 301.661 121.997Z" fill="#613CB0"/>
<path d="M167.966 133.23C167.966 133.757 167.543 134.181 167.016 134.181C166.489 134.181 166.066 133.757 166.066 133.23C166.066 132.704 166.489 132.28 167.016 132.28C167.543 132.28 167.966 132.704 167.966 133.23Z" fill="#613CB0"/>
<path d="M274.388 231.588C273.043 235.539 271.914 239.791 270.803 244.185C269.693 248.55 268.611 253.066 267.36 257.544C263.71 270.649 258.658 283.585 247.66 292.362C242.938 296.125 239.513 301.29 238.215 307.189C237.453 310.641 236.512 314.884 235.44 319.795C234.339 324.781 233.106 330.464 231.752 336.654C231.065 339.806 230.359 343.08 229.616 346.485C221.695 382.997 211.111 432.924 203.67 472.201C201.882 481.59 200.273 490.368 198.937 498.214L154.504 489.738L93.0527 478.025C95.7998 462.587 99.3089 446.377 103.382 429.848C110.674 400.138 119.714 369.374 129.066 340.182C129.179 339.787 129.31 339.401 129.433 339.015C129.658 338.338 129.875 337.661 130.091 336.983L130.722 335.017C131.653 332.138 132.509 329.523 133.271 327.209C133.422 326.766 133.553 326.334 133.704 325.901C133.723 325.844 133.741 325.788 133.76 325.732H133.77C135.802 319.551 137.843 313.473 139.856 307.518C140.195 306.521 140.534 305.533 140.873 304.545C141.202 303.567 141.54 302.579 141.879 301.601H141.889C142.096 300.97 142.321 300.34 142.547 299.719C158.475 253.452 173.348 215.416 180.028 198.595L204.836 204.39L213.002 206.29L215.589 206.892L220.133 207.955L221.055 208.162L227.556 209.677L243.615 213.431L250.737 215.087L270.089 219.602L271.377 223.187L274.124 230.779L274.407 231.569L274.388 231.588Z" fill="#F69D5E"/>
<path d="M290.118 207.288C288.067 208.624 286.063 210.026 284.022 211.39L278.001 215.605C275.15 217.646 272.158 219.64 269.458 221.889C268.668 222.547 267.906 223.225 267.182 223.93C265.893 225.163 264.67 226.499 263.484 227.891C261.716 229.933 260.013 232.068 258.329 234.11C255.215 237.91 252.12 241.749 249.109 245.653C244.744 251.298 236.625 252.351 230.981 247.986C230.473 247.61 230.012 247.205 229.588 246.773C226.154 243.292 225.176 238.099 226.644 233.639C227.406 231.259 228.873 229.086 231.028 227.487C235.92 223.733 240.699 219.885 245.478 216C247.651 214.127 249.909 212.302 252.252 210.609C255.507 208.21 258.931 206.046 262.487 204.259C263.127 203.929 263.804 203.581 264.519 203.214C268.075 201.389 272.347 199.141 275.536 197.447C277.681 196.272 284.031 193.317 286.251 192.292C290.974 190.138 293.787 191.53 295.603 194.936C297.559 198.595 293.552 205.021 290.127 207.269L290.118 207.288Z" fill="#F69D5E"/>
<path d="M228.761 204.268C237.209 195.989 246.212 188.313 255.272 180.702C261.124 177.503 267.295 174.831 273.344 171.953C279.168 169.271 291.003 163.147 295.208 162.187C303.478 160.296 304.832 171.407 298.407 176.835C293.411 180.881 288.293 184.728 283.129 188.538C277.983 192.339 272.761 196.036 267.54 199.705L269.807 197.946C262.657 206.536 255.413 215.04 247.633 223.056C234.678 235.173 216.7 217.317 228.761 204.278V204.268Z" fill="#F69D5E"/>
<path d="M207.113 195.067L232.937 163.034L234.085 161.604C234.819 160.691 235.75 159.967 236.719 159.468L289.723 132.534C296.609 129.006 300.278 129.279 302.31 133.277C304.117 136.833 303.703 141.989 298.312 146.232L250.963 182.198L254.754 178.632L232.806 213.441C228.149 220.835 218.374 223.046 210.989 218.389C203.011 213.441 201.186 202.349 207.113 195.077V195.067Z" fill="#F69D5E"/>
<path d="M279.477 136.72L221.187 189.112L196.915 259.191C194.036 267.526 184.938 271.929 176.613 269.05C168.24 266.152 159.603 259.059 162.585 250.714C162.585 250.714 180.968 181.228 198.232 167.954L271.189 120.049C275.366 117.321 282.554 114.094 286.448 117.199C289.045 119.269 288.697 123.624 285.837 128.846C284.209 131.828 281.999 134.453 279.477 136.729V136.72Z" fill="#F69D5E"/>
<path d="M133.611 326.014C133.648 325.91 133.695 325.826 133.742 325.731C133.582 326.23 133.422 326.719 133.244 327.218C133.319 326.804 133.441 326.39 133.601 326.014H133.611Z" fill="#FFD7B0"/>
<path d="M266.194 350.108C266.194 350.108 266.194 350.126 266.184 350.173C266.119 351.114 265.413 362.592 263.607 378.321C263.917 370.457 250.37 358.104 229.607 346.495C222.909 342.751 215.439 339.082 207.452 335.676C206.962 335.469 206.492 335.262 206.003 335.064C170.573 320.2 138.455 316.089 133.751 325.741C135.783 319.57 137.825 313.492 139.838 307.537C140.176 306.54 140.515 305.552 140.854 304.564C141.183 303.586 141.522 302.598 141.86 301.62H141.87C141.945 301.168 142.067 300.726 142.246 300.303C142.331 300.115 142.416 299.926 142.519 299.738C147.637 290.425 178.165 294.028 211.591 308.064H211.6C220.293 311.714 228.337 315.703 235.421 319.805C254.434 330.775 266.655 342.478 266.194 350.108Z" fill="#57438E"/>
<path d="M263.607 378.312C263.57 378.604 263.532 378.914 263.504 379.225C263.494 379.234 263.504 379.244 263.504 379.262C253.908 444.816 231.997 525.883 214.311 522.054C197.16 518.347 171.383 512.213 147.28 506.164C116.404 498.412 88.2368 490.82 84.3325 488.619C91.7929 458.231 116.15 380.213 129.038 340.182C129.151 339.787 129.283 339.402 129.405 339.016C129.631 338.338 129.847 337.661 130.064 336.984C130.29 336.316 130.497 335.667 130.694 335.018C131.625 332.139 132.482 329.523 133.244 327.209C133.394 326.767 133.526 326.334 133.676 325.901C133.695 325.845 133.714 325.789 133.733 325.732H133.742C138.446 316.07 170.564 320.181 205.994 335.046C206.483 335.243 206.954 335.45 207.443 335.657C215.43 339.072 222.9 342.741 229.598 346.476C250.371 358.085 263.908 370.438 263.598 378.303L263.607 378.312Z" fill="#D6D4FB"/>
<g style="mix-blend-mode:multiply">
<path d="M264.124 267.743C260.662 277.15 255.78 285.89 247.661 292.363C242.938 296.126 239.513 301.291 238.215 307.19C237.453 310.642 236.512 314.885 235.44 319.796C254.453 330.765 266.674 342.469 266.213 350.098C266.213 350.098 266.213 350.117 266.203 350.164C266.138 351.105 265.432 362.583 263.626 378.312C263.588 378.604 263.55 378.915 263.522 379.225C263.513 379.234 263.522 379.244 263.522 379.263C253.926 444.816 232.015 525.883 214.329 522.054C197.178 518.347 171.401 512.213 147.298 506.164C149.189 501.564 151.56 496.136 154.505 489.738C159.538 478.844 166.264 465.118 175.287 447.958C199.267 402.283 203.472 366.844 207.471 335.667C208.684 326.118 209.879 316.983 211.629 308.064C212.748 302.279 214.103 296.596 215.834 290.961C218.007 283.877 220.98 277.856 224.414 272.748L264.143 267.743H264.124Z" fill="#F0E1D3"/>
</g>
<path d="M259.457 86.5297L202.371 92.8705C193.057 93.9054 186.34 102.297 187.366 111.62L204.253 263.584C205.287 272.898 213.679 279.615 223.002 278.59L280.089 272.249C289.402 271.214 296.12 262.822 295.085 253.499L278.198 101.535C277.163 92.2214 268.771 85.5042 259.448 86.5297H259.457Z" fill="#221F1F"/>
<path d="M259.111 89.1073L202.805 95.3635C194.79 96.2572 189.013 103.473 189.907 111.488L206.747 262.991C207.641 271.007 214.857 276.783 222.872 275.89L279.178 269.633C287.184 268.74 292.969 261.524 292.076 253.508L275.236 102.005C274.342 93.9899 267.126 88.2136 259.111 89.1073Z" fill="#F8FEFF"/>
<path d="M240.539 95.9756L222.42 97.9795C220.454 98.1959 219.014 99.9739 219.231 101.959L219.259 102.232C219.475 104.198 221.253 105.637 223.238 105.421L241.358 103.417C243.324 103.201 244.763 101.423 244.547 99.4377L244.519 99.1649C244.302 97.1986 242.524 95.7593 240.539 95.9756Z" fill="black"/>
<mask id="mask0_13609_656" style="mask-type:luminance" maskUnits="userSpaceOnUse" x="226" y="160" width="20" height="30">
<path d="M229.306 189.31L226.267 161.989C226.22 161.566 226.409 161.152 226.757 160.898C227.105 160.653 227.556 160.606 227.942 160.785L243.822 168.246C244.199 168.424 244.453 168.772 244.49 169.186L245.412 177.484C245.45 177.842 245.328 178.19 245.074 178.444L238.648 184.916C238.328 185.236 237.848 185.349 237.425 185.198C236.992 185.048 236.691 184.662 236.644 184.211L235.619 174.991L237.961 174.728L238.714 181.501L243.004 177.183L242.223 170.099L228.855 163.815L231.658 189.046L229.316 189.31H229.306Z" fill="white"/>
</mask>
<g mask="url(#mask0_13609_656)">
<path d="M226.361 160.728L229.541 189.281L229.296 189.309L226.135 160.756L226.361 160.728Z" fill="#7554BA"/>
<path d="M226.666 160.677L226.376 160.709L229.559 189.264L229.849 189.231L226.666 160.677Z" fill="#7555BA"/>
<path d="M226.953 160.653L226.664 160.686L229.846 189.24L230.136 189.208L226.953 160.653Z" fill="#7656BA"/>
<path d="M227.248 160.613L226.958 160.646L230.141 189.2L230.431 189.168L227.248 160.613Z" fill="#7757BB"/>
<path d="M227.534 160.59L227.245 160.622L230.427 189.177L230.717 189.144L227.534 160.59Z" fill="#7858BB"/>
<path d="M227.82 160.548L227.53 160.581L230.713 189.135L231.003 189.103L227.82 160.548Z" fill="#7959BC"/>
<path d="M228.107 160.517L227.817 160.549L231 189.104L231.29 189.072L228.107 160.517Z" fill="#7A5ABC"/>
<path d="M228.404 160.494L228.114 160.526L231.296 189.08L231.586 189.048L228.404 160.494Z" fill="#7A5BBC"/>
<path d="M228.699 160.452L228.409 160.484L231.591 189.039L231.881 189.007L228.699 160.452Z" fill="#7B5CBD"/>
<path d="M228.985 160.42L228.695 160.453L231.878 189.007L232.168 188.975L228.985 160.42Z" fill="#7C5DBD"/>
<path d="M229.27 160.39L228.98 160.422L232.163 188.976L232.453 188.944L229.27 160.39Z" fill="#7D5EBE"/>
<path d="M229.557 160.357L229.267 160.389L232.45 188.944L232.74 188.911L229.557 160.357Z" fill="#7E5FBE"/>
<path d="M229.853 160.334L229.563 160.367L232.746 188.921L233.036 188.889L229.853 160.334Z" fill="#7E60BE"/>
<path d="M230.139 160.293L229.849 160.326L233.032 188.88L233.322 188.848L230.139 160.293Z" fill="#7F61BF"/>
<path d="M230.427 160.262L230.137 160.294L233.319 188.849L233.609 188.817L230.427 160.262Z" fill="#8062BF"/>
<path d="M230.72 160.23L230.43 160.262L233.613 188.817L233.903 188.784L230.72 160.23Z" fill="#8164C0"/>
<path d="M231.008 160.198L230.718 160.23L233.901 188.785L234.191 188.752L231.008 160.198Z" fill="#8265C0"/>
<path d="M231.304 160.174L231.014 160.207L234.196 188.761L234.486 188.729L231.304 160.174Z" fill="#8366C1"/>
<path d="M231.579 160.134L231.29 160.167L234.472 188.721L234.762 188.689L231.579 160.134Z" fill="#8367C1"/>
<path d="M231.877 160.101L231.587 160.134L234.77 188.688L235.059 188.656L231.877 160.101Z" fill="#8468C1"/>
<path d="M232.163 160.07L231.873 160.103L235.056 188.657L235.346 188.625L232.163 160.07Z" fill="#8569C2"/>
<path d="M232.459 160.038L232.169 160.07L235.352 188.625L235.642 188.593L232.459 160.038Z" fill="#866AC2"/>
<path d="M232.755 160.005L232.465 160.038L235.648 188.592L235.937 188.56L232.755 160.005Z" fill="#876BC3"/>
<path d="M233.031 159.974L232.741 160.006L235.924 188.561L236.214 188.529L233.031 159.974Z" fill="#876CC3"/>
<path d="M233.326 159.943L233.037 159.975L236.219 188.53L236.509 188.497L233.326 159.943Z" fill="#886DC3"/>
<path d="M233.613 159.911L233.323 159.943L236.506 188.498L236.796 188.466L233.613 159.911Z" fill="#896EC4"/>
<path d="M233.909 159.878L233.619 159.91L236.802 188.465L237.092 188.432L233.909 159.878Z" fill="#8A6FC4"/>
<path d="M234.186 159.847L233.896 159.879L237.079 188.434L237.369 188.402L234.186 159.847Z" fill="#8B70C5"/>
<path d="M234.483 159.816L234.193 159.848L237.376 188.403L237.665 188.37L234.483 159.816Z" fill="#8C71C5"/>
<path d="M234.777 159.784L234.487 159.816L237.67 188.37L237.96 188.338L234.777 159.784Z" fill="#8C72C5"/>
<path d="M235.064 159.751L234.774 159.783L237.957 188.338L238.246 188.305L235.064 159.751Z" fill="#8D73C6"/>
<path d="M235.36 159.719L235.07 159.751L238.253 188.306L238.542 188.273L235.36 159.719Z" fill="#8E74C6"/>
<path d="M235.636 159.687L235.346 159.72L238.529 188.274L238.819 188.242L235.636 159.687Z" fill="#8F75C7"/>
<path d="M235.931 159.655L235.642 159.687L238.824 188.242L239.114 188.209L235.931 159.655Z" fill="#9076C7"/>
<path d="M236.218 159.624L235.928 159.656L239.11 188.211L239.4 188.178L236.218 159.624Z" fill="#9077C7"/>
<path d="M236.513 159.582L236.224 159.614L239.406 188.169L239.696 188.137L236.513 159.582Z" fill="#9178C8"/>
<path d="M236.791 159.56L236.501 159.593L239.684 188.147L239.974 188.115L236.791 159.56Z" fill="#9279C8"/>
<path d="M237.087 159.527L236.797 159.56L239.98 188.114L240.27 188.082L237.087 159.527Z" fill="#937AC9"/>
<path d="M237.382 159.496L237.092 159.528L240.275 188.083L240.565 188.051L237.382 159.496Z" fill="#947BC9"/>
<path d="M237.67 159.465L237.38 159.497L240.563 188.052L240.852 188.019L237.67 159.465Z" fill="#957CC9"/>
<path d="M237.954 159.423L237.665 159.456L240.847 188.01L241.137 187.978L237.954 159.423Z" fill="#957DCA"/>
<path d="M238.241 159.401L237.951 159.433L241.134 187.988L241.424 187.955L238.241 159.401Z" fill="#967ECA"/>
<path d="M238.536 159.36L238.247 159.392L241.429 187.947L241.719 187.914L238.536 159.36Z" fill="#977FCB"/>
<path d="M238.824 159.337L238.534 159.369L241.716 187.924L242.006 187.891L238.824 159.337Z" fill="#9880CB"/>
<path d="M239.119 159.305L238.829 159.337L242.012 187.892L242.302 187.86L239.119 159.305Z" fill="#9981CB"/>
<path d="M239.405 159.265L239.115 159.297L242.297 187.851L242.587 187.819L239.405 159.265Z" fill="#9982CC"/>
<path d="M239.691 159.241L239.401 159.273L242.584 187.828L242.873 187.796L239.691 159.241Z" fill="#9A83CC"/>
<path d="M239.988 159.2L239.698 159.232L242.88 187.786L243.17 187.754L239.988 159.2Z" fill="#9B84CD"/>
<path d="M240.273 159.178L239.983 159.21L243.166 187.765L243.455 187.733L240.273 159.178Z" fill="#9C85CD"/>
<path d="M240.56 159.146L240.27 159.178L243.453 187.733L243.743 187.7L240.56 159.146Z" fill="#9D86CD"/>
<path d="M240.846 159.105L240.557 159.138L243.739 187.692L244.029 187.66L240.846 159.105Z" fill="#9E87CE"/>
<path d="M241.142 159.082L240.853 159.114L244.035 187.669L244.325 187.637L241.142 159.082Z" fill="#9E88CE"/>
<path d="M241.437 159.04L241.147 159.073L244.33 187.627L244.62 187.595L241.437 159.04Z" fill="#9F89CF"/>
<path d="M241.724 159.008L241.435 159.041L244.617 187.595L244.907 187.563L241.724 159.008Z" fill="#A08ACF"/>
<path d="M244.886 187.589L241.706 159.036L243.362 158.848L246.513 187.41L244.886 187.589Z" fill="#A08ACF"/>
</g>
<mask id="mask1_13609_656" style="mask-type:luminance" maskUnits="userSpaceOnUse" x="233" y="155" width="21" height="39">
<path d="M238.854 193.195C238.657 193.214 238.459 193.195 238.271 193.111C237.876 192.941 237.603 192.574 237.556 192.151L235.637 174.954L237.98 174.69L239.664 189.78L251.329 180.626L249.579 164.859L233.784 157.512L234.781 155.376L251.179 163.006C251.555 163.175 251.809 163.533 251.856 163.946L253.756 181.031C253.803 181.436 253.634 181.84 253.314 182.094L239.466 192.96C239.287 193.101 239.08 193.176 238.864 193.205L238.854 193.195Z" fill="white"/>
</mask>
<g mask="url(#mask1_13609_656)">
<path d="M250.859 154.99L233.501 155.64L233.482 155.508L250.708 153.607L250.859 154.99Z" fill="#1F51BC"/>
<path d="M250.897 155.292L233.53 155.941L233.502 155.64L250.859 154.991L250.897 155.292Z" fill="#1F51BC"/>
<path d="M250.924 155.592L233.567 156.241L233.529 155.94L250.896 155.291L250.924 155.592Z" fill="#2052BC"/>
<path d="M250.963 155.893L233.597 156.542L233.568 156.241L250.926 155.592L250.963 155.893Z" fill="#2153BD"/>
<path d="M251.001 156.194L233.634 156.843L233.596 156.542L250.963 155.893L251.001 156.194Z" fill="#2253BD"/>
<path d="M251.028 156.496L233.662 157.145L233.633 156.844L251 156.195L251.028 156.496Z" fill="#2354BD"/>
<path d="M251.066 156.796L233.699 157.445L233.662 157.144L251.028 156.495L251.066 156.796Z" fill="#2455BE"/>
<path d="M251.094 157.098L233.727 157.747L233.699 157.446L251.066 156.797L251.094 157.098Z" fill="#2556BE"/>
<path d="M251.132 157.399L233.766 158.058L233.728 157.747L251.095 157.098L251.132 157.399Z" fill="#2656BE"/>
<path d="M251.159 157.708L233.792 158.358L233.764 158.056L251.131 157.398L251.159 157.708Z" fill="#2757BE"/>
<path d="M251.199 158.011L233.832 158.66L233.794 158.359L251.161 157.709L251.199 158.011Z" fill="#2858BF"/>
<path d="M251.227 158.31L233.869 158.959L233.832 158.658L251.198 158.009L251.227 158.31Z" fill="#2959BF"/>
<path d="M251.264 158.612L233.897 159.261L233.869 158.96L251.227 158.311L251.264 158.612Z" fill="#2A5ABF"/>
<path d="M251.292 158.913L233.935 159.563L233.897 159.261L251.264 158.612L251.292 158.913Z" fill="#2B5AC0"/>
<path d="M251.33 159.215L233.963 159.864L233.935 159.563L251.292 158.914L251.33 159.215Z" fill="#2C5BC0"/>
<path d="M251.368 159.514L234.001 160.164L233.964 159.863L251.331 159.213L251.368 159.514Z" fill="#2D5CC0"/>
<path d="M251.395 159.817L234.028 160.466L234 160.165L251.367 159.516L251.395 159.817Z" fill="#2E5DC1"/>
<path d="M251.434 160.117L234.067 160.767L234.029 160.466L251.396 159.816L251.434 160.117Z" fill="#2F5DC1"/>
<path d="M251.462 160.419L234.095 161.068L234.067 160.767L251.434 160.118L251.462 160.419Z" fill="#305EC1"/>
<path d="M251.498 160.72L234.131 161.369L234.094 161.068L251.461 160.419L251.498 160.72Z" fill="#315FC1"/>
<path d="M251.527 161.021L234.17 161.67L234.132 161.369L251.499 160.72L251.527 161.021Z" fill="#3260C2"/>
<path d="M251.565 161.322L234.198 161.971L234.17 161.67L251.527 161.021L251.565 161.322Z" fill="#3361C2"/>
<path d="M251.594 161.623L234.236 162.272L234.199 161.971L251.566 161.322L251.594 161.623Z" fill="#3461C2"/>
<path d="M251.63 161.923L234.264 162.572L234.235 162.271L251.593 161.622L251.63 161.923Z" fill="#3562C3"/>
<path d="M251.658 162.224L234.301 162.883L234.263 162.572L251.63 161.923L251.658 162.224Z" fill="#3663C3"/>
<path d="M251.698 162.536L234.331 163.185L234.303 162.884L251.66 162.225L251.698 162.536Z" fill="#3764C3"/>
<path d="M251.734 162.837L234.367 163.486L234.329 163.185L251.696 162.536L251.734 162.837Z" fill="#3865C4"/>
<path d="M251.763 163.138L234.396 163.787L234.368 163.486L251.734 162.837L251.763 163.138Z" fill="#3965C4"/>
<path d="M251.8 163.438L234.433 164.087L234.396 163.786L251.762 163.137L251.8 163.438Z" fill="#3A66C4"/>
<path d="M251.83 163.74L234.463 164.389L234.435 164.088L251.801 163.439L251.83 163.74Z" fill="#3B67C4"/>
<path d="M251.866 164.041L234.499 164.69L234.461 164.389L251.828 163.74L251.866 164.041Z" fill="#3C68C5"/>
<path d="M251.894 164.341L234.536 164.99L234.499 164.689L251.865 164.04L251.894 164.341Z" fill="#3D68C5"/>
<path d="M251.932 164.643L234.565 165.292L234.537 164.991L251.894 164.342L251.932 164.643Z" fill="#3E69C5"/>
<path d="M251.96 164.944L234.603 165.593L234.565 165.292L251.932 164.643L251.96 164.944Z" fill="#3F6AC6"/>
<path d="M251.997 165.245L234.63 165.895L234.602 165.593L251.959 164.944L251.997 165.245Z" fill="#406BC6"/>
<path d="M252.026 165.546L234.669 166.195L234.631 165.894L251.998 165.245L252.026 165.546Z" fill="#416CC6"/>
<path d="M252.063 165.846L234.696 166.496L234.668 166.195L252.025 165.545L252.063 165.846Z" fill="#426CC7"/>
<path d="M252.101 166.147L234.734 166.796L234.697 166.495L252.064 165.846L252.101 166.147Z" fill="#436DC7"/>
<path d="M252.128 166.449L234.762 167.098L234.733 166.797L252.1 166.147L252.128 166.449Z" fill="#446EC7"/>
<path d="M252.167 166.75L234.8 167.408L234.763 167.098L252.129 166.449L252.167 166.75Z" fill="#456FC7"/>
<path d="M252.195 167.06L234.829 167.71L234.8 167.409L252.167 166.75L252.195 167.06Z" fill="#466FC8"/>
<path d="M252.234 167.361L234.867 168.01L234.829 167.709L252.196 167.06L252.234 167.361Z" fill="#4770C8"/>
<path d="M252.261 167.663L234.903 168.312L234.866 168.011L252.233 167.362L252.261 167.663Z" fill="#4871C8"/>
<path d="M252.298 167.964L234.932 168.613L234.903 168.312L252.261 167.663L252.298 167.964Z" fill="#4972C9"/>
<path d="M252.327 168.264L234.97 168.913L234.932 168.612L252.299 167.963L252.327 168.264Z" fill="#4A73C9"/>
<path d="M252.365 168.567L234.998 169.216L234.97 168.915L252.327 168.266L252.365 168.567Z" fill="#4B73C9"/>
<path d="M252.393 168.866L235.036 169.516L234.998 169.215L252.365 168.565L252.393 168.866Z" fill="#4C74CA"/>
<path d="M252.431 169.167L235.064 169.816L235.036 169.515L252.393 168.866L252.431 169.167Z" fill="#4D75CA"/>
<path d="M252.468 169.47L235.102 170.119L235.064 169.818L252.431 169.168L252.468 169.47Z" fill="#4E76CA"/>
<path d="M252.497 169.77L235.13 170.419L235.102 170.118L252.468 169.469L252.497 169.77Z" fill="#4F76CA"/>
<path d="M252.534 170.072L235.168 170.721L235.13 170.42L252.497 169.771L252.534 170.072Z" fill="#5077CB"/>
<path d="M252.562 170.371L235.196 171.02L235.167 170.719L252.534 170.07L252.562 170.371Z" fill="#5178CB"/>
<path d="M252.599 170.673L235.232 171.322L235.195 171.021L252.562 170.372L252.599 170.673Z" fill="#5279CB"/>
<path d="M252.629 170.974L235.272 171.623L235.234 171.322L252.601 170.673L252.629 170.974Z" fill="#537ACC"/>
<path d="M252.666 171.274L235.299 171.923L235.271 171.622L252.628 170.973L252.666 171.274Z" fill="#547ACC"/>
<path d="M252.695 171.576L235.338 172.235L235.3 171.924L252.667 171.275L252.695 171.576Z" fill="#557BCC"/>
<path d="M252.732 171.887L235.365 172.536L235.337 172.235L252.694 171.577L252.732 171.887Z" fill="#567CCD"/>
<path d="M252.769 172.188L235.402 172.837L235.365 172.536L252.732 171.887L252.769 172.188Z" fill="#577DCD"/>
<path d="M252.797 172.489L235.43 173.138L235.402 172.837L252.769 172.188L252.797 172.489Z" fill="#587DCD"/>
<path d="M252.834 172.79L235.467 173.439L235.43 173.138L252.796 172.489L252.834 172.79Z" fill="#597ECD"/>
<path d="M252.862 173.091L235.496 173.74L235.467 173.439L252.834 172.79L252.862 173.091Z" fill="#5A7FCE"/>
<path d="M252.901 173.392L235.535 174.041L235.497 173.74L252.864 173.091L252.901 173.392Z" fill="#5B80CE"/>
<path d="M252.929 173.693L235.562 174.342L235.534 174.041L252.901 173.392L252.929 173.693Z" fill="#5C81CE"/>
<path d="M252.966 173.995L235.599 174.644L235.562 174.343L252.928 173.694L252.966 173.995Z" fill="#5D81CF"/>
<path d="M252.996 174.295L235.638 174.944L235.601 174.643L252.967 173.994L252.996 174.295Z" fill="#5E82CF"/>
<path d="M253.033 174.596L235.666 175.245L235.638 174.944L252.995 174.295L253.033 174.596Z" fill="#5F83CF"/>
<path d="M253.061 174.897L235.703 175.546L235.666 175.245L253.032 174.596L253.061 174.897Z" fill="#6084D0"/>
<path d="M253.097 175.197L235.73 175.846L235.702 175.545L253.06 174.896L253.097 175.197Z" fill="#6184D0"/>
<path d="M253.137 175.499L235.77 176.148L235.732 175.847L253.099 175.198L253.137 175.499Z" fill="#6285D0"/>
<path d="M253.165 175.801L235.798 176.45L235.77 176.149L253.136 175.5L253.165 175.801Z" fill="#6386D0"/>
<path d="M253.202 176.102L235.835 176.76L235.798 176.45L253.165 175.801L253.202 176.102Z" fill="#6487D1"/>
<path d="M253.229 176.412L235.863 177.061L235.834 176.76L253.201 176.102L253.229 176.412Z" fill="#6588D1"/>
<path d="M253.268 176.712L235.901 177.361L235.864 177.06L253.231 176.411L253.268 176.712Z" fill="#6688D1"/>
<path d="M253.296 177.014L235.939 177.663L235.901 177.362L253.268 176.713L253.296 177.014Z" fill="#6789D2"/>
<path d="M253.333 177.315L235.967 177.964L235.938 177.663L253.296 177.014L253.333 177.315Z" fill="#688AD2"/>
<path d="M253.362 177.616L236.004 178.266L235.967 177.965L253.334 177.315L253.362 177.616Z" fill="#698BD2"/>
<path d="M253.4 177.917L236.033 178.566L236.005 178.265L253.362 177.616L253.4 177.917Z" fill="#6A8CD3"/>
<path d="M253.428 178.218L236.07 178.867L236.033 178.566L253.399 177.917L253.428 178.218Z" fill="#6B8CD3"/>
<path d="M253.465 178.52L236.098 179.169L236.07 178.868L253.427 178.219L253.465 178.52Z" fill="#6C8DD3"/>
<path d="M253.503 178.822L236.136 179.471L236.098 179.17L253.465 178.521L253.503 178.822Z" fill="#6D8ED3"/>
<path d="M253.531 179.12L236.164 179.769L236.136 179.468L253.503 178.819L253.531 179.12Z" fill="#6E8FD4"/>
<path d="M253.568 179.423L236.202 180.072L236.164 179.771L253.531 179.122L253.568 179.423Z" fill="#6F8FD4"/>
<path d="M253.597 179.723L236.23 180.373L236.202 180.071L253.569 179.422L253.597 179.723Z" fill="#7090D4"/>
<path d="M253.634 180.024L236.268 180.673L236.23 180.372L253.597 179.723L253.634 180.024Z" fill="#7191D5"/>
<path d="M253.664 180.325L236.307 180.974L236.269 180.673L253.636 180.024L253.664 180.325Z" fill="#7292D5"/>
<path d="M253.701 180.627L236.334 181.276L236.306 180.975L253.663 180.326L253.701 180.627Z" fill="#7393D5"/>
<path d="M253.729 180.928L236.371 181.587L236.333 181.276L253.7 180.627L253.729 180.928Z" fill="#7493D6"/>
<path d="M253.766 181.238L236.399 181.887L236.371 181.586L253.728 180.928L253.766 181.238Z" fill="#7594D6"/>
<path d="M253.794 181.54L236.437 182.189L236.399 181.888L253.766 181.239L253.794 181.54Z" fill="#7695D6"/>
<path d="M253.832 181.84L236.465 182.489L236.437 182.188L253.794 181.539L253.832 181.84Z" fill="#7796D6"/>
<path d="M253.87 182.141L236.503 182.79L236.466 182.489L253.833 181.84L253.87 182.141Z" fill="#7896D7"/>
<path d="M253.898 182.442L236.531 183.091L236.503 182.79L253.87 182.141L253.898 182.442Z" fill="#7997D7"/>
<path d="M253.936 182.744L236.569 183.394L236.531 183.092L253.898 182.443L253.936 182.744Z" fill="#7A98D7"/>
<path d="M253.963 183.044L236.597 183.693L236.568 183.392L253.935 182.743L253.963 183.044Z" fill="#7B99D8"/>
<path d="M254.002 183.346L236.635 183.995L236.597 183.694L253.964 183.045L254.002 183.346Z" fill="#7C9AD8"/>
<path d="M254.03 183.646L236.672 184.295L236.635 183.994L254.002 183.345L254.03 183.646Z" fill="#7D9AD8"/>
<path d="M254.067 183.947L236.7 184.596L236.672 184.295L254.029 183.646L254.067 183.947Z" fill="#7E9BD9"/>
<path d="M254.096 184.248L236.739 184.897L236.701 184.596L254.068 183.947L254.096 184.248Z" fill="#7F9CD9"/>
<path d="M254.133 184.55L236.766 185.199L236.738 184.898L254.095 184.249L254.133 184.55Z" fill="#809DD9"/>
<path d="M254.162 184.85L236.805 185.499L236.767 185.198L254.134 184.549L254.162 184.85Z" fill="#819DD9"/>
<path d="M254.199 185.152L236.832 185.801L236.804 185.5L254.161 184.851L254.199 185.152Z" fill="#829EDA"/>
<path d="M254.237 185.451L236.871 186.11L236.833 185.8L254.2 185.15L254.237 185.451Z" fill="#839FDA"/>
<path d="M254.237 185.51L254.246 185.764L236.898 186.413L236.87 186.112L254.237 185.453V185.51Z" fill="#84A0DA"/>
<path d="M254.246 185.763L254.256 186.064L236.936 186.713L236.898 186.412L254.246 185.763Z" fill="#85A1DB"/>
<path d="M254.256 186.064L254.275 186.365L236.965 187.014L236.937 186.713L254.256 186.064Z" fill="#86A1DB"/>
<path d="M254.275 186.365L254.284 186.666L237.002 187.315L236.964 187.014L254.275 186.365Z" fill="#87A2DB"/>
<path d="M254.284 186.666L254.293 186.967L237.04 187.616L237.002 187.315L254.284 186.666Z" fill="#88A3DC"/>
<path d="M254.293 186.968L254.302 187.269L237.067 187.918L237.039 187.617L254.293 186.968Z" fill="#89A4DC"/>
<path d="M254.303 187.27L254.312 187.58L237.106 188.22L237.068 187.919L254.303 187.27Z" fill="#8AA4DC"/>
<path d="M254.313 187.579L254.332 187.88L237.134 188.519L237.106 188.218L254.313 187.579Z" fill="#8BA5DC"/>
<path d="M254.33 187.881L254.34 188.182L237.17 188.822L237.133 188.521L254.33 187.881Z" fill="#8CA6DD"/>
<path d="M254.341 188.18L254.35 188.481L237.2 189.121L237.171 188.82L254.341 188.18Z" fill="#8DA7DD"/>
<path d="M254.35 188.481L254.359 188.783L237.237 189.422L237.199 189.121L254.35 188.481Z" fill="#8EA8DD"/>
<path d="M254.359 188.783L254.368 189.084L237.265 189.724L237.236 189.423L254.359 188.783Z" fill="#90A8DE"/>
<path d="M254.368 189.083L254.387 189.385L237.302 190.024L237.265 189.723L254.368 189.083Z" fill="#91A9DE"/>
<path d="M254.387 189.385L254.397 189.695L237.331 190.326L237.303 190.024L254.387 189.385Z" fill="#92AADE"/>
<path d="M254.397 189.695L254.406 189.996L237.369 190.626L237.331 190.325L254.397 189.695Z" fill="#93ABDF"/>
<path d="M254.405 189.997L254.415 190.298L237.405 190.938L237.368 190.627L254.405 189.997Z" fill="#94ACDF"/>
<path d="M254.415 190.298L254.424 190.599L237.434 191.239L237.406 190.938L254.415 190.298Z" fill="#95ACDF"/>
<path d="M254.426 190.599L254.444 190.9L237.473 191.54L237.435 191.239L254.426 190.599Z" fill="#96ADDF"/>
<path d="M254.444 190.9L254.453 191.201L237.5 191.841L237.472 191.54L254.444 190.9Z" fill="#97AEE0"/>
<path d="M254.453 191.201L254.462 191.464L253.926 191.53L237.538 192.141L237.5 191.84L254.453 191.201Z" fill="#98AFE0"/>
<path d="M249.787 191.981L237.566 192.442L237.538 192.141L253.926 191.53L249.787 191.981Z" fill="#99AFE0"/>
<path d="M245.647 192.442L237.604 192.743L237.566 192.442L249.787 191.981L245.647 192.442Z" fill="#9AB0E1"/>
<path d="M241.509 192.904L237.633 193.045L237.604 192.744L245.648 192.443L241.509 192.904Z" fill="#9BB1E1"/>
<path d="M237.632 193.045L241.508 192.904L237.669 193.327L237.632 193.045Z" fill="#9CB2E1"/>
</g>
<path d="M226.042 212.057C206.578 241.72 215.571 247.036 206.747 264.525C203.605 270.367 196.605 276.068 191.431 279.935C174.695 292.447 154.402 280.057 161.825 260.705C167.291 247.412 175.748 235.784 185.005 224.955C191.892 216.865 199.268 209.254 207.236 202.226C209.974 199.808 212.617 197.616 215.59 195.368C219.607 192.292 228.131 189.752 230.793 194.051C232.778 197.259 231.725 202.932 229.137 207.165L226.042 212.067V212.057Z" fill="#F69D5E"/>
<path d="M162.603 50.8838L110.89 72.4097L128.32 114.282L180.033 92.7559L162.603 50.8838Z" fill="#613CB0"/>
<path d="M154.176 103.52L172.719 109.739L167.77 97.8569L154.176 103.52Z" fill="#613CB0"/>
<path d="M154.671 66.3777L127.485 77.6938L128.599 80.3689L155.784 69.0528L154.671 66.3777Z" fill="white"/>
<path d="M158.492 75.577L131.307 86.8931L132.421 89.5682L159.606 78.2521L158.492 75.577Z" fill="white"/>
<path d="M162.313 84.7654L135.128 96.0815L136.241 98.7566L163.427 87.4405L162.313 84.7654Z" fill="white"/>
<path d="M294.916 90.8858C295.715 91.3092 296.524 91.6949 297.334 92.0618L324.503 110.84L314.418 95.0064C326.084 94.1127 337.053 87.4896 343.008 76.426C352.294 59.1533 345.812 37.6189 328.549 28.3334C311.276 19.0479 289.741 25.5205 280.456 42.7932C271.17 60.0659 277.643 81.6003 294.916 90.8858Z" fill="#613CB0"/>
<path d="M471.142 101.056C471.142 103.925 468.818 106.249 465.949 106.249C463.08 106.249 460.756 103.925 460.756 101.056C460.756 98.1865 463.08 95.8628 465.949 95.8628C468.818 95.8628 471.142 98.1865 471.142 101.056Z" fill="#613CB0"/>
<path d="M160.724 188.397C160.724 191.266 158.4 193.59 155.53 193.59C152.661 193.59 150.337 191.266 150.337 188.397C150.337 185.527 152.661 183.204 155.53 183.204C158.4 183.204 160.724 185.527 160.724 188.397Z" fill="#613CB0"/>
<path d="M253.654 69.7369C253.654 71.5338 252.196 72.9826 250.408 72.9826C248.621 72.9826 247.163 71.5244 247.163 69.7369C247.163 67.9494 248.621 66.4912 250.408 66.4912C252.196 66.4912 253.654 67.9494 253.654 69.7369Z" fill="#613CB0"/>
<path d="M463.269 161.058H494.107" stroke="#613CB0" stroke-width="2.82234" stroke-miterlimit="10"/>
<path d="M466.119 213.261H496.957" stroke="#613CB0" stroke-width="2.82234" stroke-miterlimit="10"/>
<path d="M107.495 213.318H140.375" stroke="#613CB0" stroke-width="2.82234" stroke-miterlimit="10"/>
<g style="mix-blend-mode:multiply">
<path d="M333.837 238.4C333.762 238.306 333.715 238.222 333.658 238.127C333.733 237.695 333.79 237.77 333.837 238.4Z" fill="#F7C6DA"/>
</g>
<path d="M334.307 166.938C334.307 166.938 326.668 172.884 334.975 190.166L339.519 182.668L334.316 166.938H334.307Z" fill="#6B432E"/>
<path d="M465.45 318.459C465.516 322.307 444.367 325.844 418.195 326.343C392.361 326.832 371.297 324.198 370.695 320.416C370.676 320.379 370.685 320.322 370.676 320.275C370.61 316.427 391.759 312.89 417.931 312.391C443.248 311.912 463.973 314.442 465.375 318.092C465.422 318.215 465.45 318.346 465.45 318.469V318.459Z" fill="#2A204F"/>
<path d="M469.929 511.631V512.336L469.901 513.286L423.2 507.04L364.044 499.118C364.072 499.062 364.119 499.005 364.157 498.949L364.298 498.526C367.356 488.506 374.929 390.374 376.039 295.524C376.124 288.205 373.085 281.196 367.666 276.276C367.28 275.919 366.885 275.571 366.481 275.185C366.471 275.175 366.462 275.166 366.453 275.166C360.516 269.662 352.576 261.468 344.636 250.819C342.585 248.053 340.515 245.108 338.493 242.013L356.631 230.836L368.936 223.263L444.547 207.289L453.475 204.175C459.863 271.535 461.264 320.869 465.046 378.106C467.323 419.369 468.734 461.092 469.797 502.486L469.901 507.576L469.929 510.219V511.64V511.631Z" fill="#6B432E"/>
<path d="M379.85 264.328C379.342 265.363 378.683 266.332 377.884 267.235C373.114 272.56 371.957 279.794 366.481 275.185C366.472 275.175 366.462 275.166 366.453 275.166C356.434 266.746 346.8 256.059 339.65 246.613L339.622 246.585C337.449 243.716 335.501 240.969 333.855 238.428H333.846V238.41C333.77 238.316 333.723 238.231 333.667 238.137C331.955 235.503 330.572 233.104 329.556 231.053C328.079 228.07 327.975 225.154 328.765 222.717C328.775 222.689 328.784 222.652 328.794 222.623C328.803 222.595 328.822 222.567 328.831 222.539C329.029 221.965 329.264 221.4 329.556 220.892C329.575 220.864 329.584 220.845 329.603 220.808C332.18 216.367 338.126 214.514 343.385 218.973L347.026 222.238L356.631 230.836L376.877 248.946C381.299 252.916 382.362 259.248 379.85 264.337V264.328Z" fill="#6B432E"/>
<path d="M347.712 175.227L352.717 190.157L383.744 206.79C390.019 210.337 394.055 216.057 387.545 220.346C383.725 222.858 376.199 225.182 368.277 220.911C367.591 220.535 348.653 209.782 348.653 209.782C339.508 204.955 337.843 200.694 335.999 196.234L331.465 179.846C329.395 166.666 341.004 165.123 347.712 175.227Z" fill="#6B432E"/>
<path d="M396.99 178.99C397.715 179.686 398.298 180.476 398.74 181.323L399.154 182.132L415.966 214.664C423.228 230.177 401.487 241.448 393.011 226.527C392.851 226.217 392.691 225.878 392.559 225.558L378.494 191.747L380.658 194.889L334.551 144.237C324.964 133.936 334.024 117.999 347.609 131.527L396.99 178.99Z" fill="#6B432E"/>
<path d="M424.263 163.052C426.615 165.075 427.866 167.907 427.96 170.776L427.979 171.425L429.748 228.568C429.964 235.699 424.367 241.654 417.235 241.871C410.104 242.087 404.149 236.489 403.933 229.358C403.933 228.493 405.175 172.366 405.194 171.519L408.919 179.892L347.815 121.131C337.759 111.413 345.727 95.1468 360.083 107.659L424.273 163.043L424.263 163.052Z" fill="#6B432E"/>
<path d="M453.005 196.883C453.664 211.616 456.872 234.514 455.442 249.172C454.586 257.347 441.49 276.981 425.563 270.095C404.602 261.026 404.066 238.579 408.478 222.096C415.553 195.679 426.268 193.186 435.055 154.332C438.668 138.357 450.87 140.578 451.161 149.675C451.161 149.675 452.572 183.091 453.005 196.883Z" fill="#6B432E"/>
<g style="mix-blend-mode:multiply" opacity="0.5">
<path d="M364.299 498.526C367.356 488.506 374.93 390.374 376.04 295.524C376.124 288.205 373.086 281.196 367.667 276.276C367.281 275.919 366.886 275.57 366.481 275.185C366.472 275.175 366.463 275.166 366.453 275.166C356.434 266.746 346.8 256.059 339.65 246.613C340.996 247.94 347.863 260.226 370.056 268.242C400.255 279.155 408.873 288.487 414.028 315.808C424.001 368.698 424.462 474.498 423.21 507.049L364.054 499.128C364.082 499.071 364.129 499.015 364.167 498.958L364.308 498.535L364.299 498.526Z" fill="#EBBCCF"/>
</g>
<path d="M418.957 353.213C392.089 353.9 370.206 349.901 370.056 344.247L370.658 320.182C370.658 320.267 370.677 320.342 370.695 320.417C371.297 324.199 392.362 326.843 418.195 326.344C444.377 325.846 465.526 322.308 465.451 318.46C465.451 318.338 467.285 341.368 467.285 341.368L467.323 341.716C467.473 347.352 445.817 352.498 418.957 353.213Z" fill="#57438E"/>
<path d="M414.104 330.051C392.466 330.051 371.534 326.778 370.913 323.156C370.884 323.014 370.979 322.883 371.12 322.864C371.251 322.836 371.383 322.93 371.411 323.071C371.901 325.921 391.281 329.891 417.067 329.525C424.01 329.431 430.68 329.092 436.88 328.518C437.002 328.499 437.144 328.612 437.153 328.744C437.162 328.885 437.059 329.007 436.927 329.017C430.709 329.59 424.029 329.929 417.077 330.023C416.089 330.033 415.092 330.042 414.104 330.042V330.051Z" fill="#2A204F"/>
<path d="M411.469 351.199C388.269 351.199 370.62 347.652 370.46 342.741C370.46 342.6 370.563 342.487 370.705 342.478C370.836 342.478 370.959 342.581 370.968 342.723C371.119 347.511 391.825 351.133 416.191 350.635C424.066 350.465 431.808 349.891 438.563 348.969C438.713 348.96 438.826 349.045 438.845 349.186C438.864 349.327 438.77 349.449 438.629 349.468C431.855 350.39 424.094 350.973 416.201 351.143C414.601 351.171 413.021 351.19 411.469 351.19V351.199Z" fill="#2A204F"/>
<path d="M437.359 323.003L434.494 323.168C433.379 323.232 432.527 324.188 432.591 325.303L434.135 352.156C434.199 353.271 435.155 354.123 436.27 354.059L439.135 353.894C440.25 353.83 441.102 352.874 441.038 351.759L439.495 324.906C439.43 323.791 438.474 322.939 437.359 323.003Z" fill="#D6D4FB"/>
<path d="M426.192 340.145C426.239 341.349 425.515 342.356 424.555 342.403C423.605 342.441 422.787 341.5 422.73 340.296C422.683 339.091 423.408 338.085 424.367 338.038C425.317 338 426.136 338.941 426.192 340.145Z" fill="#2A204F"/>
<path d="M409.192 340.833C409.239 342.037 408.514 343.043 407.555 343.09C406.605 343.128 405.786 342.187 405.73 340.983C405.683 339.779 406.407 338.772 407.367 338.725C408.317 338.688 409.135 339.628 409.192 340.833Z" fill="#2A204F"/>
<path d="M392.429 339.421C392.476 340.625 391.752 341.632 390.792 341.679C389.842 341.716 389.023 340.776 388.967 339.571C388.92 338.367 389.644 337.361 390.604 337.314C391.554 337.276 392.373 338.217 392.429 339.421Z" fill="#2A204F"/>
<path d="M375.984 335.168C376.031 336.372 375.306 337.379 374.347 337.426C373.397 337.463 372.578 336.523 372.522 335.319C372.475 334.114 373.199 333.108 374.159 333.061C375.109 333.023 375.927 333.964 375.984 335.168Z" fill="#2A204F"/>
<path d="M429.429 101.94L373.208 91.5543C364.036 89.8609 355.211 95.9195 353.518 105.102L325.859 254.779C324.166 263.952 330.224 272.777 339.406 274.47L395.627 284.856C404.8 286.55 413.624 280.491 415.318 271.309L442.977 121.631C444.67 112.458 438.602 103.634 429.429 101.94Z" fill="#221F1F"/>
<path d="M428.356 104.301L372.897 94.0563C365.004 92.5981 357.421 97.8194 355.963 105.703L328.389 254.92C326.931 262.813 332.152 270.396 340.036 271.854L395.495 282.099C403.388 283.557 410.97 278.336 412.429 270.452L440.003 121.235C441.461 113.342 436.24 105.76 428.356 104.301Z" fill="#F8FEFF"/>
<path d="M408.685 105.495L390.848 102.193C388.91 101.836 387.029 103.115 386.662 105.063L386.615 105.335C386.257 107.273 387.537 109.155 389.484 109.522L407.321 112.824C409.259 113.181 411.141 111.902 411.508 109.955L411.555 109.682C411.912 107.744 410.633 105.862 408.685 105.495Z" fill="black"/>
<mask id="mask2_13609_656" style="mask-type:luminance" maskUnits="userSpaceOnUse" x="371" y="163" width="21" height="29">
<path d="M371.11 191.211L376.087 164.295C376.162 163.881 376.463 163.533 376.868 163.392C377.272 163.251 377.715 163.345 378.034 163.627L391.017 175.302C391.318 175.575 391.459 175.989 391.384 176.394L389.869 184.569C389.804 184.917 389.587 185.218 389.277 185.387L381.29 189.696C380.894 189.913 380.405 189.875 380.038 189.611C379.671 189.348 379.493 188.896 379.577 188.445L381.252 179.366L383.566 179.79L382.334 186.46L387.668 183.581L388.957 176.61L378.025 166.779L373.434 191.625L371.12 191.201L371.11 191.211Z" fill="white"/>
</mask>
<g mask="url(#mask2_13609_656)">
<path d="M376.53 163.128L371.347 191.247L371.102 191.21L376.314 163.081L376.53 163.128Z" fill="#7554BA"/>
<path d="M376.503 163.103L371.315 191.229L371.602 191.281L376.79 163.156L376.503 163.103Z" fill="#7555BA"/>
<path d="M376.788 163.156L371.601 191.281L371.888 191.334L377.075 163.209L376.788 163.156Z" fill="#7656BA"/>
<path d="M377.074 163.216L371.887 191.342L372.174 191.395L377.361 163.269L377.074 163.216Z" fill="#7757BB"/>
<path d="M377.361 163.259L372.173 191.384L372.46 191.437L377.647 163.312L377.361 163.259Z" fill="#7858BB"/>
<path d="M377.646 163.313L372.459 191.438L372.746 191.491L377.933 163.366L377.646 163.313Z" fill="#7959BC"/>
<path d="M377.922 163.373L372.735 191.498L373.022 191.551L378.209 163.426L377.922 163.373Z" fill="#7A5ABC"/>
<path d="M378.218 163.426L373.03 191.551L373.317 191.604L378.504 163.479L378.218 163.426Z" fill="#7A5BBC"/>
<path d="M378.495 163.476L373.308 191.601L373.595 191.654L378.782 163.529L378.495 163.476Z" fill="#7B5CBD"/>
<path d="M378.781 163.529L373.593 191.654L373.88 191.707L379.067 163.582L378.781 163.529Z" fill="#7C5DBD"/>
<path d="M379.076 163.582L373.889 191.708L374.175 191.76L379.363 163.635L379.076 163.582Z" fill="#7D5EBE"/>
<path d="M379.354 163.632L374.167 191.757L374.454 191.81L379.641 163.685L379.354 163.632Z" fill="#7E5FBE"/>
<path d="M379.639 163.685L374.452 191.811L374.738 191.863L379.926 163.738L379.639 163.685Z" fill="#7E60BE"/>
<path d="M379.916 163.745L374.729 191.871L375.015 191.924L380.203 163.798L379.916 163.745Z" fill="#7F61BF"/>
<path d="M380.211 163.789L375.024 191.914L375.311 191.967L380.498 163.842L380.211 163.789Z" fill="#8062BF"/>
<path d="M380.497 163.841L375.31 191.966L375.597 192.019L380.784 163.893L380.497 163.841Z" fill="#8164C0"/>
<path d="M380.773 163.901L375.585 192.026L375.872 192.079L381.06 163.953L380.773 163.901Z" fill="#8265C0"/>
<path d="M381.069 163.945L375.882 192.071L376.169 192.124L381.356 163.998L381.069 163.945Z" fill="#8366C1"/>
<path d="M381.355 164.008L376.168 192.133L376.455 192.186L381.642 164.06L381.355 164.008Z" fill="#8367C1"/>
<path d="M381.632 164.057L376.444 192.183L376.731 192.236L381.918 164.11L381.632 164.057Z" fill="#8468C1"/>
<path d="M381.917 164.11L376.73 192.235L377.017 192.288L382.204 164.163L381.917 164.11Z" fill="#8569C2"/>
<path d="M382.205 164.161L377.018 192.286L377.304 192.339L382.492 164.214L382.205 164.161Z" fill="#866AC2"/>
<path d="M382.49 164.213L377.303 192.338L377.59 192.391L382.777 164.266L382.49 164.213Z" fill="#876BC3"/>
<path d="M382.776 164.275L377.588 192.4L377.875 192.453L383.063 164.327L382.776 164.275Z" fill="#876CC3"/>
<path d="M383.062 164.317L377.875 192.442L378.161 192.495L383.349 164.37L383.062 164.317Z" fill="#886DC3"/>
<path d="M383.349 164.369L378.162 192.495L378.448 192.548L383.636 164.422L383.349 164.369Z" fill="#896EC4"/>
<path d="M383.625 164.43L378.438 192.556L378.724 192.609L383.912 164.483L383.625 164.43Z" fill="#8A6FC4"/>
<path d="M383.912 164.474L378.725 192.599L379.011 192.652L384.199 164.527L383.912 164.474Z" fill="#8B70C5"/>
<path d="M384.206 164.535L379.019 192.661L379.306 192.714L384.493 164.588L384.206 164.535Z" fill="#8C71C5"/>
<path d="M384.483 164.586L379.295 192.711L379.582 192.764L384.77 164.639L384.483 164.586Z" fill="#8C72C5"/>
<path d="M384.769 164.63L379.582 192.755L379.869 192.808L385.056 164.683L384.769 164.63Z" fill="#8D73C6"/>
<path d="M385.065 164.692L379.878 192.817L380.165 192.87L385.352 164.744L385.065 164.692Z" fill="#8E74C6"/>
<path d="M385.341 164.741L380.154 192.867L380.441 192.92L385.628 164.794L385.341 164.741Z" fill="#8F75C7"/>
<path d="M385.627 164.803L380.439 192.929L380.726 192.982L385.914 164.856L385.627 164.803Z" fill="#9076C7"/>
<path d="M385.905 164.845L380.718 192.971L381.005 193.024L386.192 164.898L385.905 164.845Z" fill="#9077C7"/>
<path d="M386.199 164.898L381.011 193.023L381.298 193.076L386.485 164.951L386.199 164.898Z" fill="#9178C8"/>
<path d="M386.484 164.96L381.297 193.085L381.584 193.138L386.771 165.013L386.484 164.96Z" fill="#9279C8"/>
<path d="M386.762 165.002L381.575 193.127L381.862 193.18L387.049 165.055L386.762 165.002Z" fill="#937AC9"/>
<path d="M387.057 165.063L381.87 193.188L382.157 193.241L387.344 165.116L387.057 165.063Z" fill="#947BC9"/>
<path d="M387.342 165.116L382.154 193.241L382.441 193.294L387.628 165.169L387.342 165.116Z" fill="#957CC9"/>
<path d="M387.621 165.158L382.434 193.283L382.72 193.336L387.908 165.211L387.621 165.158Z" fill="#957DCA"/>
<path d="M387.906 165.219L382.718 193.345L383.005 193.398L388.192 165.272L387.906 165.219Z" fill="#967ECA"/>
<path d="M388.191 165.271L383.004 193.396L383.291 193.449L388.478 165.324L388.191 165.271Z" fill="#977FCB"/>
<path d="M388.476 165.333L383.289 193.458L383.575 193.511L388.763 165.386L388.476 165.333Z" fill="#9880CB"/>
<path d="M388.764 165.376L383.577 193.501L383.864 193.554L389.051 165.429L388.764 165.376Z" fill="#9981CB"/>
<path d="M389.041 165.427L383.854 193.552L384.14 193.605L389.328 165.48L389.041 165.427Z" fill="#9982CC"/>
<path d="M389.335 165.489L384.148 193.614L384.435 193.667L389.622 165.542L389.335 165.489Z" fill="#9A83CC"/>
<path d="M389.613 165.53L384.425 193.655L384.712 193.708L389.899 165.583L389.613 165.53Z" fill="#9B84CD"/>
<path d="M389.899 165.592L384.711 193.718L384.998 193.771L390.186 165.645L389.899 165.592Z" fill="#9C85CD"/>
<path d="M390.193 165.645L385.005 193.77L385.292 193.823L390.48 165.698L390.193 165.645Z" fill="#9D86CD"/>
<path d="M390.472 165.686L385.284 193.811L385.571 193.864L390.758 165.739L390.472 165.686Z" fill="#9E87CE"/>
<path d="M390.757 165.748L385.569 193.874L385.856 193.926L391.043 165.801L390.757 165.748Z" fill="#9E88CE"/>
<path d="M391.042 165.801L385.855 193.926L386.142 193.979L391.329 165.854L391.042 165.801Z" fill="#9F89CF"/>
<path d="M391.33 165.852L386.143 193.978L386.429 194.03L391.617 165.905L391.33 165.852Z" fill="#A08ACF"/>
<path d="M386.454 194.052L391.647 165.932L393.265 166.233L388.053 194.353L386.454 194.052Z" fill="#A08ACF"/>
</g>
<mask id="mask3_13609_656" style="mask-type:luminance" maskUnits="userSpaceOnUse" x="378" y="160" width="22" height="38">
<path d="M379.088 197.655C378.891 197.617 378.712 197.533 378.552 197.401C378.223 197.128 378.072 196.705 378.147 196.281L381.271 179.338L383.585 179.761L380.838 194.626L394.583 189.263L397.452 173.731L384.517 162.178L386.078 160.428L399.513 172.423C399.823 172.696 399.964 173.11 399.889 173.514L396.775 190.345C396.7 190.75 396.427 191.079 396.05 191.229L379.728 197.598C379.521 197.683 379.295 197.702 379.088 197.655Z" fill="white"/>
</mask>
<g mask="url(#mask3_13609_656)">
<path d="M401.525 164.708L384.798 160.324L384.817 160.202L401.779 163.344L401.525 164.708Z" fill="#1F51BC"/>
<path d="M401.478 165.01L384.742 160.626L384.798 160.325L401.525 164.709L401.478 165.01Z" fill="#1F51BC"/>
<path d="M401.422 165.301L384.686 160.927L384.742 160.625L401.479 165.01L401.422 165.301Z" fill="#2052BC"/>
<path d="M401.365 165.602L384.629 161.218L384.685 160.926L401.422 165.301L401.365 165.602Z" fill="#2153BD"/>
<path d="M401.309 165.894L384.573 161.519L384.629 161.218L401.366 165.602L401.309 165.894Z" fill="#2253BD"/>
<path d="M401.252 166.195L384.516 161.811L384.572 161.519L401.309 165.894L401.252 166.195Z" fill="#2354BD"/>
<path d="M401.196 166.496L384.469 162.112L384.516 161.811L401.253 166.195L401.196 166.496Z" fill="#2455BE"/>
<path d="M401.149 166.787L384.413 162.412L384.469 162.111L401.196 166.495L401.149 166.787Z" fill="#2556BE"/>
<path d="M401.092 167.09L384.356 162.706L384.412 162.414L401.149 166.789L401.092 167.09Z" fill="#2656BE"/>
<path d="M401.036 167.38L384.3 163.006L384.356 162.705L401.093 167.089L401.036 167.38Z" fill="#2757BE"/>
<path d="M400.98 167.682L384.243 163.298L384.3 163.006L401.036 167.381L400.98 167.682Z" fill="#2858BF"/>
<path d="M400.924 167.974L384.188 163.599L384.244 163.298L400.98 167.682L400.924 167.974Z" fill="#2959BF"/>
<path d="M400.867 168.274L384.13 163.89L384.187 163.599L400.923 167.973L400.867 168.274Z" fill="#2A5ABF"/>
<path d="M400.811 168.575L384.083 164.191L384.131 163.89L400.867 168.274L400.811 168.575Z" fill="#2B5AC0"/>
<path d="M400.762 168.867L384.026 164.492L384.082 164.191L400.809 168.575L400.762 168.867Z" fill="#2C5BC0"/>
<path d="M400.707 169.168L383.97 164.784L384.027 164.493L400.763 168.867L400.707 169.168Z" fill="#2D5CC0"/>
<path d="M400.651 169.459L383.915 165.084L383.971 164.783L400.707 169.167L400.651 169.459Z" fill="#2E5DC1"/>
<path d="M400.594 169.761L383.858 165.377L383.914 165.085L400.651 169.46L400.594 169.761Z" fill="#2F5DC1"/>
<path d="M400.538 170.053L383.801 165.678L383.858 165.377L400.594 169.761L400.538 170.053Z" fill="#305EC1"/>
<path d="M400.481 170.353L383.745 165.969L383.801 165.677L400.538 170.052L400.481 170.353Z" fill="#315FC1"/>
<path d="M400.425 170.654L383.698 166.27L383.745 165.969L400.481 170.353L400.425 170.654Z" fill="#3260C2"/>
<path d="M400.379 170.947L383.642 166.572L383.699 166.271L400.426 170.655L400.379 170.947Z" fill="#3361C2"/>
<path d="M400.321 171.247L383.584 166.863L383.641 166.571L400.377 170.946L400.321 171.247Z" fill="#3461C2"/>
<path d="M400.264 171.537L383.528 167.163L383.584 166.862L400.321 171.246L400.264 171.537Z" fill="#3562C3"/>
<path d="M400.209 171.84L383.472 167.456L383.529 167.164L400.265 171.539L400.209 171.84Z" fill="#3663C3"/>
<path d="M400.152 172.14L383.415 167.756L383.471 167.455L400.208 171.839L400.152 172.14Z" fill="#3764C3"/>
<path d="M400.094 172.432L383.367 168.057L383.414 167.756L400.151 172.14L400.094 172.432Z" fill="#3865C4"/>
<path d="M400.039 172.734L383.312 168.35L383.368 168.058L400.096 172.433L400.039 172.734Z" fill="#3965C4"/>
<path d="M399.992 173.025L383.255 168.651L383.312 168.35L400.039 172.734L399.992 173.025Z" fill="#3A66C4"/>
<path d="M399.936 173.326L383.199 168.942L383.256 168.65L399.992 173.025L399.936 173.326Z" fill="#3B67C4"/>
<path d="M399.879 173.618L383.143 169.243L383.199 168.942L399.935 173.326L399.879 173.618Z" fill="#3C68C5"/>
<path d="M399.822 173.919L383.086 169.535L383.142 169.243L399.879 173.618L399.822 173.919Z" fill="#3D68C5"/>
<path d="M399.767 174.22L383.031 169.836L383.087 169.535L399.824 173.919L399.767 174.22Z" fill="#3E69C5"/>
<path d="M399.709 174.512L382.982 170.137L383.029 169.836L399.766 174.22L399.709 174.512Z" fill="#3F6AC6"/>
<path d="M399.662 174.813L382.925 170.429L382.982 170.137L399.709 174.512L399.662 174.813Z" fill="#406BC6"/>
<path d="M399.606 175.103L382.869 170.729L382.926 170.428L399.662 174.812L399.606 175.103Z" fill="#416CC6"/>
<path d="M399.549 175.405L382.813 171.021L382.869 170.729L399.606 175.104L399.549 175.405Z" fill="#426CC7"/>
<path d="M399.494 175.697L382.758 171.323L382.814 171.021L399.551 175.406L399.494 175.697Z" fill="#436DC7"/>
<path d="M399.436 175.997L382.7 171.613L382.756 171.322L399.493 175.696L399.436 175.997Z" fill="#446EC7"/>
<path d="M399.381 176.299L382.644 171.915L382.7 171.614L399.437 175.998L399.381 176.299Z" fill="#456FC7"/>
<path d="M399.324 176.591L382.597 172.217L382.644 171.916L399.381 176.3L399.324 176.591Z" fill="#466FC8"/>
<path d="M399.277 176.892L382.541 172.508L382.597 172.217L399.324 176.591L399.277 176.892Z" fill="#4770C8"/>
<path d="M399.221 177.183L382.484 172.809L382.541 172.508L399.277 176.892L399.221 177.183Z" fill="#4871C8"/>
<path d="M399.164 177.485L382.427 173.101L382.484 172.81L399.22 177.184L399.164 177.485Z" fill="#4972C9"/>
<path d="M399.108 177.786L382.371 173.402L382.428 173.101L399.164 177.485L399.108 177.786Z" fill="#4A73C9"/>
<path d="M399.05 178.076L382.313 173.692L382.37 173.4L399.106 177.784L399.05 178.076Z" fill="#4B73C9"/>
<path d="M398.994 178.379L382.258 173.995L382.314 173.694L399.051 178.078L398.994 178.379Z" fill="#4C74CA"/>
<path d="M398.938 178.67L382.211 174.295L382.258 173.994L398.994 178.378L398.938 178.67Z" fill="#4D75CA"/>
<path d="M398.891 178.971L382.154 174.587L382.211 174.295L398.938 178.67L398.891 178.971Z" fill="#4E76CA"/>
<path d="M398.835 179.262L382.098 174.887L382.155 174.586L398.891 178.97L398.835 179.262Z" fill="#4F76CA"/>
<path d="M398.777 179.563L382.041 175.179L382.097 174.888L398.834 179.262L398.777 179.563Z" fill="#5077CB"/>
<path d="M398.721 179.864L381.985 175.48L382.041 175.179L398.778 179.563L398.721 179.864Z" fill="#5178CB"/>
<path d="M398.666 180.157L381.929 175.782L381.986 175.481L398.722 179.865L398.666 180.157Z" fill="#5279CB"/>
<path d="M398.609 180.456L381.882 176.072L381.929 175.781L398.665 180.155L398.609 180.456Z" fill="#537ACC"/>
<path d="M398.553 180.749L381.826 176.375L381.882 176.074L398.609 180.458L398.553 180.749Z" fill="#547ACC"/>
<path d="M398.505 181.049L381.769 176.665L381.825 176.374L398.552 180.748L398.505 181.049Z" fill="#557BCC"/>
<path d="M398.449 181.342L381.712 176.968L381.769 176.667L398.505 181.051L398.449 181.342Z" fill="#567CCD"/>
<path d="M398.393 181.642L381.656 177.258L381.713 176.966L398.449 181.341L398.393 181.642Z" fill="#577DCD"/>
<path d="M398.336 181.943L381.599 177.559L381.656 177.258L398.392 181.642L398.336 181.943Z" fill="#587DCD"/>
<path d="M398.279 182.235L381.543 177.861L381.599 177.56L398.336 181.944L398.279 182.235Z" fill="#597ECD"/>
<path d="M398.223 182.536L381.496 178.152L381.543 177.86L398.28 182.234L398.223 182.536Z" fill="#5A7FCE"/>
<path d="M398.175 182.828L381.439 178.453L381.495 178.152L398.222 182.536L398.175 182.828Z" fill="#5B80CE"/>
<path d="M398.12 183.129L381.384 178.745L381.44 178.453L398.177 182.828L398.12 183.129Z" fill="#5C81CE"/>
<path d="M398.063 183.42L381.327 179.046L381.383 178.745L398.12 183.129L398.063 183.42Z" fill="#5D81CF"/>
<path d="M398.007 183.721L381.271 179.337L381.327 179.045L398.064 183.42L398.007 183.721Z" fill="#5E82CF"/>
<path d="M397.951 184.023L381.214 179.639L381.271 179.338L398.007 183.722L397.951 184.023Z" fill="#5F83CF"/>
<path d="M397.893 184.315L381.157 179.94L381.213 179.639L397.95 184.023L397.893 184.315Z" fill="#6084D0"/>
<path d="M397.838 184.615L381.111 180.231L381.158 179.939L397.894 184.314L397.838 184.615Z" fill="#6184D0"/>
<path d="M397.791 184.906L381.054 180.532L381.111 180.23L397.838 184.614L397.791 184.906Z" fill="#6285D0"/>
<path d="M397.734 185.208L380.998 180.824L381.054 180.532L397.79 184.907L397.734 185.208Z" fill="#6386D0"/>
<path d="M397.678 185.508L380.941 181.124L380.998 180.823L397.734 185.207L397.678 185.508Z" fill="#6487D1"/>
<path d="M397.621 185.801L380.884 181.417L380.941 181.125L397.677 185.51L397.621 185.801Z" fill="#6588D1"/>
<path d="M397.565 186.102L380.829 181.718L380.885 181.417L397.622 185.801L397.565 186.102Z" fill="#6688D1"/>
<path d="M397.508 186.393L380.771 182.019L380.828 181.718L397.564 186.102L397.508 186.393Z" fill="#6789D2"/>
<path d="M397.452 186.694L380.725 182.31L380.772 182.018L397.509 186.393L397.452 186.694Z" fill="#688AD2"/>
<path d="M397.405 186.986L380.669 182.612L380.725 182.311L397.452 186.695L397.405 186.986Z" fill="#698BD2"/>
<path d="M397.348 187.286L380.612 182.902L380.668 182.61L397.405 186.985L397.348 187.286Z" fill="#6A8CD3"/>
<path d="M397.292 187.588L380.556 183.204L380.612 182.903L397.349 187.287L397.292 187.588Z" fill="#6B8CD3"/>
<path d="M397.235 187.88L380.499 183.505L380.555 183.204L397.292 187.588L397.235 187.88Z" fill="#6C8DD3"/>
<path d="M397.179 188.181L380.442 183.797L380.499 183.505L397.235 187.879L397.179 188.181Z" fill="#6D8ED3"/>
<path d="M397.122 188.472L380.395 184.097L380.442 183.796L397.178 188.18L397.122 188.472Z" fill="#6E8FD4"/>
<path d="M397.075 188.774L380.339 184.39L380.395 184.099L397.122 188.473L397.075 188.774Z" fill="#6F8FD4"/>
<path d="M397.019 189.065L380.282 184.69L380.339 184.389L397.075 188.773L397.019 189.065Z" fill="#7090D4"/>
<path d="M396.963 189.366L380.226 184.982L380.283 184.69L397.019 189.065L396.963 189.366Z" fill="#7191D5"/>
<path d="M396.906 189.668L380.169 185.283L380.226 184.982L396.962 189.366L396.906 189.668Z" fill="#7292D5"/>
<path d="M396.85 189.959L380.113 185.584L380.17 185.283L396.906 189.667L396.85 189.959Z" fill="#7393D5"/>
<path d="M396.794 190.259L380.058 185.875L380.114 185.583L396.851 189.958L396.794 190.259Z" fill="#7493D6"/>
<path d="M396.737 190.552L380.01 186.178L380.057 185.876L396.794 190.26L396.737 190.552Z" fill="#7594D6"/>
<path d="M396.689 190.852L379.952 186.468L380.009 186.177L396.736 190.551L396.689 190.852Z" fill="#7695D6"/>
<path d="M396.633 191.143L379.896 186.769L379.953 186.468L396.689 190.852L396.633 191.143Z" fill="#7796D6"/>
<path d="M396.577 191.446L379.841 187.062L379.897 186.77L396.634 191.145L396.577 191.446Z" fill="#7896D7"/>
<path d="M396.521 191.746L379.785 187.362L379.841 187.061L396.578 191.445L396.521 191.746Z" fill="#7997D7"/>
<path d="M396.463 192.037L379.727 187.663L379.783 187.362L396.519 191.746L396.463 192.037Z" fill="#7A98D7"/>
<path d="M396.407 192.339L379.671 187.955L379.727 187.663L396.464 192.038L396.407 192.339Z" fill="#7B99D8"/>
<path d="M396.351 192.63L379.624 188.256L379.671 187.955L396.407 192.339L396.351 192.63Z" fill="#7C9AD8"/>
<path d="M396.304 192.932L379.568 188.548L379.624 188.256L396.351 192.631L396.304 192.932Z" fill="#7D9AD8"/>
<path d="M396.248 193.232L379.512 188.848L379.568 188.547L396.305 192.931L396.248 193.232Z" fill="#7E9BD9"/>
<path d="M396.191 193.526L379.454 189.151L379.511 188.85L396.247 193.234L396.191 193.526Z" fill="#7F9CD9"/>
<path d="M396.134 193.825L379.398 189.441L379.454 189.149L396.191 193.524L396.134 193.825Z" fill="#809DD9"/>
<path d="M396.079 194.118L379.342 189.743L379.399 189.442L396.135 193.826L396.079 194.118Z" fill="#819DD9"/>
<path d="M396.022 194.418L379.295 190.034L379.342 189.742L396.079 194.117L396.022 194.418Z" fill="#829EDA"/>
<path d="M395.965 194.709L379.238 190.335L379.294 190.034L396.021 194.418L395.965 194.709Z" fill="#839FDA"/>
<path d="M395.955 194.766L395.899 195.011L379.181 190.627L379.238 190.335L395.965 194.71L395.955 194.766Z" fill="#84A0DA"/>
<path d="M395.899 195.01L395.824 195.302L379.125 190.928L379.181 190.626L395.899 195.01Z" fill="#85A1DB"/>
<path d="M395.823 195.302L395.748 195.585L379.068 191.229L379.124 190.928L395.823 195.302Z" fill="#86A1DB"/>
<path d="M395.749 195.584L395.664 195.876L379.013 191.52L379.069 191.229L395.749 195.584Z" fill="#87A2DB"/>
<path d="M395.665 195.877L395.59 196.168L378.957 191.822L379.013 191.521L395.665 195.877Z" fill="#88A3DC"/>
<path d="M395.589 196.167L395.514 196.459L378.909 192.112L378.956 191.821L395.589 196.167Z" fill="#89A4DC"/>
<path d="M395.513 196.459L395.438 196.751L378.852 192.414L378.908 192.113L395.513 196.459Z" fill="#8AA4DC"/>
<path d="M395.438 196.751L395.363 197.043L378.796 192.706L378.852 192.414L395.438 196.751Z" fill="#8BA5DC"/>
<path d="M395.364 197.042L395.289 197.333L378.74 193.006L378.797 192.705L395.364 197.042Z" fill="#8CA6DD"/>
<path d="M395.289 197.334L395.214 197.626L378.684 193.308L378.741 193.007L395.289 197.334Z" fill="#8DA7DD"/>
<path d="M395.212 197.626L395.137 197.917L378.626 193.599L378.682 193.308L395.212 197.626Z" fill="#8EA8DD"/>
<path d="M395.137 197.918L395.062 198.21L378.57 193.901L378.626 193.6L395.137 197.918Z" fill="#90A8DE"/>
<path d="M395.062 198.209L394.977 198.501L378.523 194.192L378.57 193.9L395.062 198.209Z" fill="#91A9DE"/>
<path d="M394.977 198.501L394.902 198.793L378.466 194.493L378.523 194.192L394.977 198.501Z" fill="#92AADE"/>
<path d="M394.903 198.793L394.828 199.085L378.411 194.785L378.468 194.494L394.903 198.793Z" fill="#93ABDF"/>
<path d="M394.827 199.084L394.752 199.375L378.354 195.085L378.41 194.784L394.827 199.084Z" fill="#94ACDF"/>
<path d="M394.751 199.376L394.676 199.668L378.297 195.387L378.353 195.086L394.751 199.376Z" fill="#95ACDF"/>
<path d="M394.677 199.667L394.601 199.959L378.241 195.678L378.298 195.387L394.677 199.667Z" fill="#96ADDF"/>
<path d="M394.601 199.959L394.525 200.251L378.184 195.98L378.241 195.679L394.601 199.959Z" fill="#97AEE0"/>
<path d="M394.527 200.251L394.461 200.505L393.924 200.411L378.138 196.271L378.185 195.979L394.527 200.251Z" fill="#98AFE0"/>
<path d="M389.851 199.648L378.082 196.572L378.138 196.271L393.924 200.41L389.851 199.648Z" fill="#99AFE0"/>
<path d="M385.776 198.896L378.024 196.873L378.08 196.572L389.85 199.649L385.776 198.896Z" fill="#9AB0E1"/>
<path d="M381.704 198.144L377.969 197.165L378.025 196.874L385.777 198.896L381.704 198.144Z" fill="#9BB1E1"/>
<path d="M377.968 197.166L381.703 198.144L377.921 197.438L377.968 197.166Z" fill="#9CB2E1"/>
</g>
<path d="M348.221 184.239C340.563 181.699 332.039 176.007 332.378 171.868C333.046 163.796 342.059 162.902 350.714 168.792C354.853 171.604 362.285 174.841 361.57 180.222C360.827 185.876 353.103 185.857 348.211 184.23L348.221 184.239Z" fill="#6B432E"/>
<path d="M339.603 221.155C339.603 221.155 331.428 234.477 329.217 230.318C325.021 222.435 327.458 214.504 331.145 211.587C332.557 210.468 335.341 209.057 337.722 207.956C340.375 206.724 343.376 206.47 346.198 207.241C350.3 208.37 353.865 209.489 358.024 210.807C368.071 213.977 362.69 224.777 352.689 223.215C352.689 223.215 343.912 222.322 339.603 221.165V221.155Z" fill="#6B432E"/>
<path d="M299.159 76.1909L291.162 61.6935L294.794 59.6897L300.57 70.17L332.82 47.77L335.191 51.1756L299.159 76.1909Z" fill="white"/>
<path d="M523.526 117.934L493.468 108.686C491.191 107.99 488.783 109.26 488.087 111.536L482.451 129.844C481.755 132.12 483.025 134.529 485.302 135.225L515.36 144.473C517.636 145.169 520.045 143.899 520.741 141.622L526.376 123.315C527.072 121.038 525.802 118.63 523.526 117.934ZM504.983 134.529L499.451 132.826L502.913 125.695C501.888 124.726 501.427 123.23 501.869 121.791C502.49 119.768 504.635 118.639 506.648 119.26C508.661 119.881 509.8 122.026 509.179 124.039C508.737 125.479 507.514 126.457 506.121 126.673L504.974 134.51L504.983 134.529Z" fill="#613CB0"/>
<path d="M499.423 110.707L500.335 107.857C501.953 102.795 507.4 99.9919 512.462 101.61C517.523 103.228 520.327 108.675 518.709 113.737L517.796 116.587L523.158 118.3L524.071 115.449C526.639 107.424 522.199 98.8066 514.174 96.2382C506.149 93.6699 497.532 98.1104 494.963 106.135L494.051 108.986L499.413 110.698L499.423 110.707Z" fill="#613CB0"/>
<path d="M478.179 190.513L481.02 192.047L479.741 194.182L476.871 192.489L476.928 195.641H474.482L474.51 192.461L471.64 194.182L470.389 192.047L473.23 190.513L470.389 188.952L471.64 186.816L474.51 188.538L474.482 185.358H476.928L476.871 188.538L479.741 186.816L481.02 188.952L478.179 190.513Z" fill="#613CB0"/>
<path d="M495.057 190.513L497.898 192.047L496.618 194.182L493.749 192.489L493.806 195.641H491.36L491.388 192.461L488.518 194.182L487.267 192.047L490.108 190.513L487.267 188.952L488.518 186.816L491.388 188.538L491.36 185.358H493.806L493.749 188.538L496.618 186.816L497.898 188.952L495.057 190.513Z" fill="#613CB0"/>
<path d="M511.934 190.513L514.775 192.047L513.496 194.182L510.627 192.489L510.683 195.641H508.237L508.265 192.461L505.396 194.182L504.145 192.047L506.986 190.513L504.145 188.952L505.396 186.816L508.265 188.538L508.237 185.358H510.683L510.627 188.538L513.496 186.816L514.775 188.952L511.934 190.513Z" fill="#613CB0"/>
<path d="M528.803 190.513L531.644 192.047L530.365 194.182L527.495 192.489L527.552 195.641H525.106L525.134 192.461L522.264 194.182L521.013 192.047L523.854 190.513L521.013 188.952L522.264 186.816L525.134 188.538L525.106 185.358H527.552L527.495 188.538L530.365 186.816L531.644 188.952L528.803 190.513Z" fill="#613CB0"/>
<path d="M545.68 190.513L548.521 192.047L547.241 194.182L544.372 192.489L544.429 195.641H541.983L542.011 192.461L539.141 194.182L537.89 192.047L540.731 190.513L537.89 188.952L539.141 186.816L542.011 188.538L541.983 185.358H544.429L544.372 188.538L547.241 186.816L548.521 188.952L545.68 190.513Z" fill="#613CB0"/>
<path d="M157.563 138.263C157.158 137.953 156.735 137.671 156.292 137.435C152.115 135.112 146.753 135.535 142.98 138.865C140.252 141.274 138.935 144.708 139.095 148.094C139.142 149.054 139.302 150.033 139.603 150.964C140.073 152.488 140.864 153.937 141.983 155.207L148.559 162.648C149.208 163.382 149.914 164.003 150.685 164.52C151.288 164.944 151.918 165.292 152.586 165.565C153.197 165.847 153.837 166.063 154.477 166.223C154.957 166.327 155.427 166.411 155.907 166.477C156.49 166.543 157.083 166.562 157.647 166.543C158.118 166.515 158.588 166.487 159.058 166.402C159.858 166.28 160.648 166.063 161.41 165.781C161.777 165.631 162.135 165.471 162.483 165.292C162.925 165.066 163.339 164.812 163.753 164.53C164.063 164.314 164.364 164.097 164.647 163.843C164.731 163.787 164.797 163.721 164.872 163.655C165.324 163.26 165.747 162.827 166.124 162.376C166.359 162.084 166.585 161.773 166.792 161.482C167.572 160.296 168.137 159.017 168.447 157.69C168.57 157.201 168.645 156.712 168.701 156.213C168.842 154.878 168.748 153.495 168.429 152.168C168.269 151.491 168.033 150.823 167.742 150.183C167.328 149.27 166.792 148.396 166.105 147.586C166.039 147.502 165.964 147.408 165.888 147.323L159.312 139.882C158.776 139.279 158.183 138.734 157.553 138.273L157.563 138.263ZM167.601 153.542C167.761 154.661 167.732 155.79 167.525 156.891C167.45 157.305 167.356 157.7 167.224 158.086C166.904 159.13 166.434 160.118 165.785 161.03C165.578 161.322 165.343 161.613 165.098 161.896C164.807 162.225 164.496 162.545 164.167 162.837C164.044 162.949 163.922 163.053 163.79 163.156C163.489 163.392 163.198 163.608 162.878 163.815C162.483 164.06 162.078 164.295 161.655 164.483C161.297 164.652 160.921 164.793 160.554 164.925C159.745 165.188 158.936 165.348 158.108 165.424C157.657 165.461 157.196 165.471 156.735 165.442C156.189 165.424 155.643 165.348 155.116 165.245C154.599 165.141 154.091 165 153.602 164.822C152.877 164.549 152.172 164.21 151.523 163.777C150.742 163.269 150.017 162.658 149.378 161.924L142.802 154.482C141.212 152.685 140.346 150.503 140.196 148.283C140.092 146.74 140.318 145.187 140.883 143.739C141.466 142.215 142.407 140.822 143.705 139.684C147.449 136.372 152.887 136.231 156.791 139.035L156.81 139.054C157.421 139.496 157.995 140.013 158.513 140.596L165.145 148.104C165.569 148.603 165.954 149.129 166.274 149.675C166.716 150.446 167.055 151.246 167.29 152.074C167.441 152.554 167.544 153.052 167.61 153.542H167.601Z" fill="#613CB0"/>
<path d="M155.7 151.274C157.28 154.83 159.369 159.487 163.781 163.166C164.063 163.401 164.346 163.627 164.656 163.852C164.374 164.106 164.073 164.332 163.762 164.539C163.452 164.304 163.16 164.069 162.878 163.815C158.419 160.023 156.302 155.301 154.693 151.716C152.991 147.906 152.087 146.109 150.149 146.759C149.538 146.965 149.152 147.408 148.955 148.132C148.033 151.594 151.683 159.76 155.117 165.245C155.38 165.678 155.644 166.091 155.898 166.477C155.418 166.421 154.957 166.336 154.468 166.233C154.176 165.781 153.884 165.301 153.602 164.812C150.319 159.271 146.923 151.547 147.91 147.85C148.202 146.777 148.86 146.034 149.811 145.724C152.774 144.736 154.072 147.624 155.709 151.274H155.7Z" fill="#613CB0"/>
<path d="M154.092 152.328C155.597 155.687 157.798 160.598 161.655 164.483C161.928 164.756 162.192 165.029 162.493 165.292C162.145 165.471 161.778 165.631 161.42 165.772C161.129 165.499 160.846 165.217 160.574 164.925C156.782 160.964 154.6 156.101 153.113 152.761C152.52 151.434 151.853 149.929 151.448 149.487C151.241 151.246 154.543 161.171 158.128 165.414C158.438 165.8 158.748 166.12 159.068 166.393C158.598 166.468 158.128 166.506 157.657 166.534C157.356 166.195 157.046 165.828 156.754 165.433C153.264 160.786 150.084 151.924 150.366 149.374C150.441 148.697 150.761 148.433 151.015 148.349C152.154 147.935 152.84 149.496 154.101 152.319L154.092 152.328Z" fill="#613CB0"/>
<path d="M165.794 161.04C166.151 161.228 166.49 161.369 166.801 161.491C166.594 161.793 166.368 162.094 166.133 162.385C165.803 162.254 165.455 162.094 165.088 161.905C162.868 160.748 160.159 158.396 158.164 153.674C154.279 144.473 152.369 143.146 149.772 143.777C148.277 144.134 147.242 144.99 146.687 146.326C145.313 149.704 147.054 155.969 151.513 163.768C151.852 164.361 152.2 164.954 152.576 165.565C151.908 165.292 151.278 164.944 150.676 164.53C150.102 163.524 149.575 162.545 149.086 161.604C145.53 154.708 144.335 149.243 145.689 145.922C146.376 144.238 147.665 143.156 149.518 142.714C153.14 141.848 155.398 144.303 159.171 153.241C161.109 157.832 163.724 160.014 165.775 161.049L165.794 161.04Z" fill="#613CB0"/>
<path d="M168.729 156.214C168.673 156.712 168.597 157.202 168.475 157.691C168.334 157.757 168.193 157.823 168.042 157.879C167.779 157.983 167.515 158.058 167.233 158.086C165.935 158.331 164.505 157.973 163.084 157.042C161.306 155.885 160.046 153.062 158.729 150.061C157.393 147.051 156.019 143.946 154.1 142.507C152.548 141.34 150.873 140.954 149.255 141.368C147.195 141.923 145.388 143.73 144.203 146.467C142.952 149.346 143.939 153.749 145.003 156.967C145.379 158.105 145.765 159.102 146.056 159.817L144.024 157.512C143.77 156.741 143.507 155.903 143.281 155.019C142.51 152.009 142.096 148.565 143.196 146.044C144.523 142.987 146.574 140.954 148.982 140.315C150.929 139.807 152.933 140.258 154.758 141.632C156.903 143.241 158.343 146.477 159.726 149.619C160.986 152.46 162.172 155.141 163.677 156.12C165.06 157.004 166.377 157.277 167.534 156.882C167.572 156.882 167.619 156.863 167.657 156.844C168.042 156.703 168.409 156.487 168.729 156.204V156.214Z" fill="#613CB0"/>
<path d="M167.761 150.182C168.052 150.831 168.288 151.49 168.447 152.167C168.222 152.732 167.939 153.193 167.601 153.541C167.526 153.625 167.45 153.682 167.375 153.748C167.309 153.804 167.224 153.861 167.159 153.917C166.18 154.641 164.948 154.66 163.866 153.983C162.426 153.08 160.987 150.267 159.463 147.284C158.362 145.13 157.224 142.9 156.217 141.762C153.988 139.241 150.94 137.115 145.333 140.53C142.473 142.27 140.337 146.965 141.231 152.158C141.409 153.174 139.707 150.182 139.584 150.954C139.283 150.022 139.773 149.655 139.726 148.686C140.111 147.294 140.44 142.552 144.759 139.598C150.958 135.355 154.834 138.545 157.036 141.038C158.137 142.28 159.256 144.472 160.432 146.795C161.749 149.382 163.264 152.308 164.449 153.051C165.155 153.484 165.907 153.484 166.519 153.033C166.801 152.826 167.074 152.496 167.281 152.064C167.526 151.584 167.704 150.944 167.751 150.173L167.761 150.182Z" fill="#613CB0"/>
<path d="M164.194 145.395L165.897 147.324C165.972 147.408 166.047 147.493 166.113 147.587C166.32 148.396 166.386 149.102 166.254 149.676C166.151 150.146 165.925 150.532 165.558 150.861C165.483 150.927 165.398 151.002 165.314 151.059C165.031 151.247 164.693 151.284 164.363 151.153C163.394 150.795 162.642 149.027 162.265 147.982C160.883 144.163 159.405 141.66 156.79 139.045L156.771 139.026C156.395 138.527 156.15 138.226 156.141 138.217C155.962 137.982 156.009 137.634 156.235 137.446C156.235 137.446 156.263 137.427 156.273 137.427C156.715 137.662 157.138 137.944 157.543 138.255C158.041 138.894 158.512 139.553 158.992 140.211C159.904 141.472 160.798 142.761 161.598 144.116C161.814 144.473 161.974 144.116 162.181 144.492C162.482 145.047 162.858 146.327 163.046 146.929C163.244 147.55 163.413 148.189 163.677 148.801C163.827 149.168 164.627 150.795 165.107 149.854C165.295 149.497 165.257 149.017 165.21 148.641C165.182 148.462 165.154 148.283 165.116 148.105C164.975 147.455 164.74 146.806 164.495 146.185C164.392 145.922 164.288 145.649 164.175 145.395H164.194Z" fill="#613CB0"/>
<path d="M297.287 87.4519L278.622 96.6339L289.064 77.0093L297.287 87.4519Z" fill="#613CB0"/>
<path d="M324.503 110.84L319.432 90.6225L286.844 85.2412L324.503 110.84Z" fill="#613CB0"/>
</g>
<defs>
<clipPath id="clip0_13609_656">
<rect width="607.63" height="512" fill="white" transform="translate(0.659668 -18)"/>
</clipPath>
</defs>
</svg>
