<svg width="132" height="133" viewBox="0 0 132 133" fill="none" xmlns="http://www.w3.org/2000/svg">
<g id="verified_user">
<mask id="mask0_13543_6668" style="mask-type:alpha" maskUnits="userSpaceOnUse" x="0" y="0" width="132" height="133">
<rect id="Bounding box" x="0.0688477" y="0.851074" width="131.214" height="131.214" fill="#D9D9D9"/>
</mask>
<g mask="url(#mask0_13543_6668)">
<path id="verified_user_2" d="M59.9349 85.8669L90.8248 54.9769L83.034 47.1861L59.9349 70.2852L48.4537 58.804L40.6628 66.5948L59.9349 85.8669ZM65.6755 121.131C53.0097 117.941 42.5536 110.675 34.3072 99.33C26.0607 87.9854 21.9375 75.388 21.9375 61.5376V28.1874L65.6755 11.7856L109.413 28.1874V61.5376C109.413 75.388 105.29 87.9854 97.0438 99.33C88.7974 110.675 78.3413 117.941 65.6755 121.131ZM65.6755 109.649C75.1521 106.642 82.9884 100.628 89.1847 91.6075C95.3809 82.5865 98.479 72.5632 98.479 61.5376V35.7049L65.6755 23.4035L32.872 35.7049V61.5376C32.872 72.5632 35.9701 82.5865 42.1663 91.6075C48.3625 100.628 56.1989 106.642 65.6755 109.649Z" fill="#613CB0"/>
</g>
</g>
</svg>
